<svg width="43" height="99" viewBox="0 0 43 99" fill="none" xmlns="http://www.w3.org/2000/svg">
<path d="M39.9268 3.63636H42.9268C42.9268 1.97951 41.5837 0.636361 39.9268 0.636361V3.63636ZM26.3519 3.63636V0.636361C25.7689 0.636361 25.1986 0.806227 24.7106 1.12519L26.3519 3.63636ZM3.30611 18.6996L1.66476 16.1884C0.817051 16.7425 0.306108 17.6868 0.306108 18.6996H3.30611ZM3.30611 32.049H0.306108C0.306108 33.1503 0.909513 34.163 1.87802 34.6873C2.84652 35.2115 4.0244 35.163 4.94647 34.5608L3.30611 32.049ZM25.4048 17.6172V14.6172C24.8222 14.6172 24.2523 14.7868 23.7645 15.1054L25.4048 17.6172ZM25.946 17.6172H28.946C28.946 15.9603 27.6029 14.6172 25.946 14.6172V17.6172ZM25.946 96H22.946C22.946 97.6569 24.2892 99 25.946 99V96ZM39.9268 96V99C41.5837 99 42.9268 97.6569 42.9268 96H39.9268ZM39.9268 0.636361H26.3519V6.63636H39.9268V0.636361ZM24.7106 1.12519L1.66476 16.1884L4.94746 21.2107L27.9933 6.14753L24.7106 1.12519ZM0.306108 18.6996V32.049H6.30611V18.6996H0.306108ZM4.94647 34.5608L27.0452 20.129L23.7645 15.1054L1.66574 29.5372L4.94647 34.5608ZM25.4048 20.6172H25.946V14.6172H25.4048V20.6172ZM22.946 17.6172V96H28.946V17.6172H22.946ZM25.946 99H39.9268V93H25.946V99ZM42.9268 96V3.63636H36.9268V96H42.9268Z" fill="#FFCD4D"/>
</svg>
