<svg width="68" height="100" viewBox="0 0 68 100" fill="none" xmlns="http://www.w3.org/2000/svg">
<path d="M3.88459 97H0.884589C0.884589 98.6569 2.22773 100 3.88459 100V97ZM64.6786 97V100C66.3355 100 67.6786 98.6569 67.6786 97H64.6786ZM64.6786 85.0487H67.6786C67.6786 83.3918 66.3355 82.0487 64.6786 82.0487V85.0487ZM23.0969 85.0487H20.0969C20.0969 86.7055 21.4401 88.0487 23.0969 88.0487V85.0487ZM23.0969 84.3722L20.9278 82.2998C20.3945 82.8579 20.0969 83.6002 20.0969 84.3722H23.0969ZM41.4524 65.1598L39.3199 63.0498C39.3076 63.0622 39.2954 63.0747 39.2833 63.0874L41.4524 65.1598ZM3.79439 31.4254H0.79439C0.79439 33.0823 2.13754 34.4254 3.79439 34.4254V31.4254ZM17.0987 31.4254V34.4254C17.8967 34.4254 18.6619 34.1075 19.2249 33.5419C19.7879 32.9764 20.1023 32.2098 20.0987 31.4118L17.0987 31.4254ZM35.1385 54.5163L37.2971 56.5997C37.3047 56.5918 37.3123 56.5839 37.3198 56.5759L35.1385 54.5163ZM3.88459 86.8977L1.72602 84.8143C1.18625 85.3736 0.884589 86.1205 0.884589 86.8977H3.88459ZM3.88459 100H64.6786V94H3.88459V100ZM67.6786 97V85.0487H61.6786V97H67.6786ZM64.6786 82.0487H23.0969V88.0487H64.6786V82.0487ZM26.0969 85.0487V84.3722H20.0969V85.0487H26.0969ZM25.2661 86.4446L43.6216 67.2322L39.2833 63.0874L20.9278 82.2998L25.2661 86.4446ZM43.585 67.2698C60.4919 50.1825 66.1903 41.2376 66.1903 29.5764H60.1903C60.1903 38.5707 56.2375 45.9517 39.3199 63.0498L43.585 67.2698ZM66.1903 29.5764C66.1903 12.8025 52.4668 0.373576 33.6953 0.373576V6.37358C49.7406 6.37358 60.1903 16.6747 60.1903 29.5764H66.1903ZM33.6953 0.373576C24.4121 0.373576 16.1774 3.38526 10.2332 8.86936C4.26682 14.3739 0.79439 22.2026 0.79439 31.4254H6.79439C6.79439 23.781 9.63588 17.5839 14.3017 13.2793C18.9896 8.95422 25.7055 6.37358 33.6953 6.37358V0.373576ZM3.79439 34.4254H17.0987V28.4254H3.79439V34.4254ZM20.0987 31.4118C20.0791 27.1104 21.4459 23.8179 23.6369 21.6095C25.8265 19.4026 29.1061 18.0092 33.4247 18.0092V12.0092C27.7764 12.0092 22.8704 13.863 19.3775 17.3837C15.886 20.9029 14.0732 25.8185 14.0988 31.4391L20.0987 31.4118ZM33.4247 18.0092C37.5122 18.0092 40.8973 19.2642 43.2165 21.3002C45.4975 23.3026 46.9311 26.2128 46.9311 29.9822H52.9311C52.9311 24.5514 50.8018 19.9751 47.1748 16.7911C43.586 13.6406 38.7179 12.0092 33.4247 12.0092V18.0092ZM46.9311 29.9822C46.9311 36.7488 43.0704 41.746 32.9572 52.4567L37.3198 56.5759C47.0504 46.2704 52.9311 39.5417 52.9311 29.9822H46.9311ZM32.9799 52.4329L1.72602 84.8143L6.04316 88.9811L37.2971 56.5997L32.9799 52.4329ZM0.884589 86.8977V97H6.88459V86.8977H0.884589Z" fill="#FFCD4D"/>
</svg>
