<svg width="72" height="102" viewBox="0 0 72 102" fill="none" xmlns="http://www.w3.org/2000/svg">
<path d="M68.6925 71.6541L65.6925 71.6425C65.6925 71.6493 65.6925 71.6561 65.6925 71.6629L68.6925 71.6541ZM49.3899 49.6907H46.3899C46.3899 51.1708 47.4694 52.4297 48.9321 52.6556L49.3899 49.6907ZM49.3899 48.9691L48.6432 46.0635C47.317 46.4044 46.3899 47.5999 46.3899 48.9691H49.3899ZM65.2649 28.5391L62.2649 28.5291C62.2649 28.5368 62.2649 28.5444 62.2649 28.5521L65.2649 28.5391ZM5.37287 28.6293L2.37422 28.5392C2.34987 29.3501 2.65497 30.1363 3.21995 30.7185C3.78492 31.3007 4.5616 31.6293 5.37287 31.6293V28.6293ZM18.8576 28.6293V31.6293C20.471 31.6293 21.7955 30.3532 21.8555 28.7409L18.8576 28.6293ZM51.7802 29.2607L48.7802 29.2448C48.7802 29.2551 48.7802 29.2655 48.7802 29.2758L51.7802 29.2607ZM26.6147 44.0533V41.0533C24.9578 41.0533 23.6147 42.3964 23.6147 44.0533H26.6147ZM26.6147 55.4183H23.6147C23.6147 57.0752 24.9578 58.4183 26.6147 58.4183V55.4183ZM17.5948 72.9169L20.5883 72.7195C20.4844 71.1427 19.1751 69.9169 17.5948 69.9169V72.9169ZM3.43359 72.9169V69.9169C2.6177 69.9169 1.83701 70.2492 1.27141 70.8372C0.705824 71.4253 0.404131 72.2183 0.435864 73.0336L3.43359 72.9169ZM36.0405 101.263C55.9387 101.263 71.7441 89.193 71.6925 71.6453L65.6925 71.6629C65.7311 84.7829 53.8454 95.2628 36.0405 95.2628V101.263ZM71.6924 71.6657C71.7174 65.2007 69.7608 59.45 65.9224 55.0343C62.0869 50.6218 56.5651 47.7631 49.8477 46.7258L48.9321 52.6556C54.4818 53.5125 58.6338 55.7951 61.3941 58.9706C64.1515 62.1428 65.7126 66.4268 65.6925 71.6425L71.6924 71.6657ZM52.3899 49.6907V48.9691H46.3899V49.6907H52.3899ZM50.1367 51.8747C61.0615 49.0669 68.3162 40.3312 68.2649 28.526L62.2649 28.5521C62.3038 37.4926 57.0209 43.9104 48.6432 46.0635L50.1367 51.8747ZM68.2649 28.549C68.3163 13.0699 55.5769 0.373576 36.4013 0.373576V6.37358C52.764 6.37358 62.3037 16.8583 62.2649 28.5291L68.2649 28.549ZM36.4013 0.373576C18.3995 0.373576 2.88955 11.3788 2.37422 28.5392L8.37152 28.7193C8.75818 15.8435 20.4883 6.37358 36.4013 6.37358V0.373576ZM5.37287 31.6293H18.8576V25.6293H5.37287V31.6293ZM21.8555 28.7409C22.0863 22.5434 28.0032 18.0092 36.2209 18.0092V12.0092C26.3086 12.0092 16.2603 17.7577 15.8597 28.5176L21.8555 28.7409ZM36.2209 18.0092C40.3305 18.0092 43.4589 19.2511 45.522 21.1473C47.5609 23.0212 48.7987 25.7485 48.7802 29.2448L54.7801 29.2765C54.8067 24.249 52.9778 19.8506 49.5822 16.7297C46.2108 13.6312 41.5371 12.0092 36.2209 12.0092V18.0092ZM48.7802 29.2758C48.7984 32.8678 47.3948 35.7133 45.0224 37.7106C42.6031 39.7475 38.9818 41.0533 34.4169 41.0533V47.0533C40.0895 47.0533 45.1725 45.4276 48.8867 42.3005C52.6478 39.134 54.8071 34.5832 54.7801 29.2455L48.7802 29.2758ZM34.4169 41.0533H26.6147V47.0533H34.4169V41.0533ZM23.6147 44.0533V55.4183H29.6147V44.0533H23.6147ZM26.6147 58.4183H34.4169V52.4183H26.6147V58.4183ZM34.4169 58.4183C40.3432 58.4183 44.6634 59.9216 47.438 62.1612C50.1506 64.3508 51.6215 67.4228 51.6215 71.2031H57.6215C57.6215 65.6929 55.3941 60.8726 51.2066 57.4924C47.0809 54.1622 41.2988 52.4183 34.4169 52.4183V58.4183ZM51.6215 71.2031C51.6215 74.7404 50.1161 77.6576 47.4891 79.7565C44.8135 81.8943 40.8471 83.2663 35.9503 83.2663V89.2663C41.9224 89.2663 47.2917 87.5942 51.2344 84.444C55.2257 81.2551 57.6215 76.6407 57.6215 71.2031H51.6215ZM35.9503 83.2663C26.7144 83.2663 20.9799 78.6582 20.5883 72.7195L14.6013 73.1143C15.2921 83.5918 25.162 89.2663 35.9503 89.2663V83.2663ZM17.5948 69.9169H3.43359V75.9169H17.5948V69.9169ZM0.435864 73.0336C1.1065 90.2637 16.3803 101.263 36.0405 101.263V95.2628C18.3583 95.2628 6.93328 85.6965 6.43132 72.8002L0.435864 73.0336Z" fill="#FFCD4D"/>
</svg>
