<svg width="77" height="99" viewBox="0 0 77 99" fill="none" xmlns="http://www.w3.org/2000/svg">
<path d="M3.94531 77.9602H0.945312C0.945312 79.6171 2.28846 80.9602 3.94531 80.9602L3.94531 77.9602ZM47.7369 77.9602H50.7369C50.7369 76.3034 49.3937 74.9602 47.7369 74.9602V77.9602ZM47.7369 96H44.7369C44.7369 97.6569 46.08 99 47.7369 99V96ZM61.0412 96V99C62.698 99 64.0412 97.6569 64.0412 96H61.0412ZM61.0412 77.9602V74.9602C59.3843 74.9602 58.0412 76.3034 58.0412 77.9602H61.0412ZM73.2631 77.9602V80.9602C74.92 80.9602 76.2631 79.6171 76.2631 77.9602H73.2631ZM73.2631 66.1442H76.2631C76.2631 64.4873 74.92 63.1442 73.2631 63.1442V66.1442ZM61.0412 66.1442H58.0412C58.0412 67.801 59.3843 69.1442 61.0412 69.1442V66.1442ZM61.0412 3.63636H64.0412C64.0412 1.97951 62.698 0.636361 61.0412 0.636361V3.63636ZM43.8583 3.63636V0.636361C42.8301 0.636361 41.8735 1.16295 41.3235 2.03172L43.8583 3.63636ZM3.94531 66.6854L1.41053 65.0807C1.10664 65.5608 0.945313 66.1172 0.945313 66.6854H3.94531ZM47.8271 66.1442V69.1442C49.4839 69.1442 50.8271 67.801 50.8271 66.1442H47.8271ZM18.5575 66.1442H15.5575C15.5575 67.801 16.9007 69.1442 18.5575 69.1442V66.1442ZM18.5575 65.4226L16.0212 63.8203C15.7183 64.2998 15.5575 64.8554 15.5575 65.4226H18.5575ZM47.1055 20.233V17.233C46.0762 17.233 45.1189 17.7606 44.5692 18.6307L47.1055 20.233ZM47.8271 20.233H50.8271C50.8271 18.5761 49.4839 17.233 47.8271 17.233V20.233ZM3.94531 80.9602H47.7369V74.9602H3.94531V80.9602ZM44.7369 77.9602V96H50.7369V77.9602H44.7369ZM47.7369 99H61.0412V93H47.7369V99ZM64.0412 96V77.9602H58.0412V96H64.0412ZM61.0412 80.9602H73.2631V74.9602H61.0412V80.9602ZM76.2631 77.9602V66.1442H70.2631V77.9602H76.2631ZM73.2631 63.1442H61.0412V69.1442H73.2631V63.1442ZM64.0412 66.1442V3.63636H58.0412V66.1442H64.0412ZM61.0412 0.636361H43.8583V6.63636H61.0412V0.636361ZM41.3235 2.03172L1.41053 65.0807L6.4801 68.29L46.3931 5.241L41.3235 2.03172ZM0.945312 66.6854V77.9602H6.94531V66.6854H0.945312ZM47.8271 63.1442H18.5575V69.1442H47.8271V63.1442ZM21.5575 66.1442V65.4226H15.5575V66.1442H21.5575ZM21.0938 67.0248L49.6418 21.8352L44.5692 18.6307L16.0212 63.8203L21.0938 67.0248ZM47.1055 23.233H47.8271V17.233H47.1055V23.233ZM44.8271 20.233V66.1442H50.8271V20.233H44.8271Z" fill="#FFCD4D"/>
</svg>
