<svg width="100" height="100" viewBox="0 0 100 100" fill="none" xmlns="http://www.w3.org/2000/svg">
<path d="M37.5 87.5C35.8424 87.5 34.2527 86.8415 33.0806 85.6694C31.9085 84.4973 31.25 82.9076 31.25 81.25C31.25 80.8356 31.0854 80.4382 30.7924 80.1451C30.4993 79.8521 30.1019 79.6875 29.6875 79.6875C29.2731 79.6875 28.8757 79.8521 28.5826 80.1451C28.2896 80.4382 28.125 80.8356 28.125 81.25C28.125 82.9076 27.4665 84.4973 26.2944 85.6694C25.1223 86.8415 23.5326 87.5 21.875 87.5C21.4606 87.5 21.0632 87.6646 20.7701 87.9576C20.4771 88.2507 20.3125 88.6481 20.3125 89.0625C20.3125 89.4769 20.4771 89.8743 20.7701 90.1674C21.0632 90.4604 21.4606 90.625 21.875 90.625C23.5326 90.625 25.1223 91.2835 26.2944 92.4556C27.4665 93.6277 28.125 95.2174 28.125 96.875C28.125 97.2894 28.2896 97.6868 28.5826 97.9799C28.8757 98.2729 29.2731 98.4375 29.6875 98.4375C30.1019 98.4375 30.4993 98.2729 30.7924 97.9799C31.0854 97.6868 31.25 97.2894 31.25 96.875C31.25 95.2174 31.9085 93.6277 33.0806 92.4556C34.2527 91.2835 35.8424 90.625 37.5 90.625C37.9144 90.625 38.3118 90.4604 38.6049 90.1674C38.8979 89.8743 39.0625 89.4769 39.0625 89.0625C39.0625 88.6481 38.8979 88.2507 38.6049 87.9576C38.3118 87.6646 37.9144 87.5 37.5 87.5Z" fill="#05CFDC"/>
<path d="M81.25 31.25C82.9076 31.25 84.4973 31.9085 85.6694 33.0806C86.8415 34.2527 87.5 35.8424 87.5 37.5C87.5 37.9144 87.6646 38.3118 87.9576 38.6049C88.2507 38.8979 88.6481 39.0625 89.0625 39.0625C89.4769 39.0625 89.8743 38.8979 90.1674 38.6049C90.4604 38.3118 90.625 37.9144 90.625 37.5C90.625 35.8424 91.2835 34.2527 92.4556 33.0806C93.6277 31.9085 95.2174 31.25 96.875 31.25C97.2894 31.25 97.6868 31.0854 97.9799 30.7924C98.2729 30.4993 98.4375 30.1019 98.4375 29.6875C98.4375 29.2731 98.2729 28.8757 97.9799 28.5826C97.6868 28.2896 97.2894 28.125 96.875 28.125C95.2174 28.125 93.6277 27.4665 92.4556 26.2944C91.2835 25.1223 90.625 23.5326 90.625 21.875C90.625 21.4606 90.4604 21.0632 90.1674 20.7701C89.8743 20.4771 89.4769 20.3125 89.0625 20.3125C88.6481 20.3125 88.2507 20.4771 87.9576 20.7701C87.6646 21.0632 87.5 21.4606 87.5 21.875C87.5 23.5326 86.8415 25.1223 85.6694 26.2944C84.4973 27.4665 82.9076 28.125 81.25 28.125C80.8356 28.125 80.4382 28.2896 80.1451 28.5826C79.8521 28.8757 79.6875 29.2731 79.6875 29.6875C79.6875 30.1019 79.8521 30.4993 80.1451 30.7924C80.4382 31.0854 80.8356 31.25 81.25 31.25Z" fill="#05CFDC"/>
<path d="M21.875 35.9375C24.7748 35.9408 27.5549 37.0942 29.6053 39.1447C31.6558 41.1951 32.8092 43.9752 32.8125 46.875C32.8125 47.2894 32.9771 47.6868 33.2701 47.9799C33.5632 48.2729 33.9606 48.4375 34.375 48.4375C34.7894 48.4375 35.1868 48.2729 35.4799 47.9799C35.7729 47.6868 35.9375 47.2894 35.9375 46.875C35.9408 43.9752 37.0942 41.1951 39.1447 39.1447C41.1951 37.0942 43.9752 35.9408 46.875 35.9375C47.2894 35.9375 47.6868 35.7729 47.9799 35.4799C48.2729 35.1868 48.4375 34.7894 48.4375 34.375C48.4375 33.9606 48.2729 33.5632 47.9799 33.2701C47.6868 32.9771 47.2894 32.8125 46.875 32.8125C43.9752 32.8092 41.1951 31.6558 39.1447 29.6053C37.0942 27.5549 35.9408 24.7748 35.9375 21.875C35.9375 21.4606 35.7729 21.0632 35.4799 20.7701C35.1868 20.4771 34.7894 20.3125 34.375 20.3125C33.9606 20.3125 33.5632 20.4771 33.2701 20.7701C32.9771 21.0632 32.8125 21.4606 32.8125 21.875C32.8092 24.7748 31.6558 27.5549 29.6053 29.6053C27.5549 31.6558 24.7748 32.8092 21.875 32.8125C21.4606 32.8125 21.0632 32.9771 20.7701 33.2701C20.4771 33.5632 20.3125 33.9606 20.3125 34.375C20.3125 34.7894 20.4771 35.1868 20.7701 35.4799C21.0632 35.7729 21.4606 35.9375 21.875 35.9375V35.9375Z" fill="#05CFDC"/>
<path d="M64.0277 60.839C63.9 61.3101 63.9023 61.807 64.0343 62.2769C64.1664 62.7468 64.4233 63.1722 64.7778 63.5078C65.2432 63.8629 65.7388 64.1766 66.259 64.4453V58.1375C65.683 58.3528 65.1737 58.7157 64.7821 59.1898C64.3905 59.664 64.1304 60.2327 64.0277 60.839V60.839Z" fill="#05CFDC"/>
<path d="M69.8438 69.3077L69.3906 69.1515V77.6109C70.2165 77.325 70.9502 76.8221 71.5147 76.1548C72.0791 75.4875 72.4535 74.6806 72.5984 73.8187C72.7928 72.858 72.617 71.8593 72.1061 71.0227C71.5953 70.1862 70.7872 69.5736 69.8438 69.3077V69.3077Z" fill="#05CFDC"/>
<path d="M67.9688 47.8516C63.99 47.8516 60.1005 49.0314 56.7922 51.2419C53.484 53.4524 50.9055 56.5943 49.3829 60.2702C47.8603 63.9462 47.4619 67.9911 48.2381 71.8934C49.0143 75.7958 50.9303 79.3803 53.7438 82.1937C56.5572 85.0072 60.1417 86.9232 64.0441 87.6994C67.9464 88.4756 71.9913 88.0772 75.6673 86.5546C79.3432 85.032 82.4851 82.4535 84.6956 79.1453C86.9061 75.837 88.0859 71.9475 88.0859 67.9687C88.0801 62.6351 85.9588 57.5216 82.1874 53.7501C78.4159 49.9787 73.3024 47.8574 67.9688 47.8516ZM75.6734 74.3297C75.4153 75.9277 74.6744 77.4086 73.5502 78.5733C72.426 79.738 70.9723 80.5308 69.3844 80.8453V82.8125C69.3844 83.2269 69.2198 83.6243 68.9267 83.9173C68.6337 84.2104 68.2363 84.375 67.8219 84.375C67.4075 84.375 67.0101 84.2104 66.717 83.9173C66.424 83.6243 66.2594 83.2269 66.2594 82.8125V80.9687C64.315 80.8972 62.436 80.2477 60.8625 79.1031C60.6908 78.9903 60.5429 78.8447 60.4274 78.6747C60.312 78.5047 60.2311 78.3136 60.1895 78.1124C60.1478 77.9112 60.1462 77.7037 60.1848 77.5018C60.2233 77.3 60.3012 77.1077 60.4141 76.9359C60.5269 76.7642 60.6725 76.6164 60.8425 76.5009C61.0125 76.3854 61.2035 76.3045 61.4048 76.2629C61.606 76.2212 61.8135 76.2196 62.0154 76.2582C62.2172 76.2967 62.4095 76.3746 62.5813 76.4875C63.6462 77.2986 64.9292 77.773 66.2656 77.85V67.9125C65.0532 67.4074 63.908 66.754 62.8563 65.9672C62.0479 65.2803 61.4438 64.3845 61.1099 63.3777C60.7759 62.3709 60.7249 61.2916 60.9625 60.2578C61.167 59.0659 61.6956 57.9532 62.4904 57.0418C63.2853 56.1303 64.3157 55.4553 65.4688 55.0906C65.7391 55.0094 66.0016 54.9469 66.2609 54.8906V53.125C66.2609 52.7106 66.4256 52.3132 66.7186 52.0201C67.0116 51.7271 67.409 51.5625 67.8234 51.5625C68.2378 51.5625 68.6353 51.7271 68.9283 52.0201C69.2213 52.3132 69.3859 52.7106 69.3859 53.125V54.7719C70.9446 54.985 72.4125 55.6302 73.6234 56.6344C73.9207 56.9159 74.0956 57.3028 74.1104 57.712C74.1253 58.1211 73.9791 58.5197 73.7031 58.8221C73.4271 59.1245 73.0435 59.3065 72.6347 59.329C72.2259 59.3514 71.8246 59.2125 71.5172 58.9422C70.8936 58.4496 70.1639 58.1089 69.3859 57.9469V65.8125C69.8547 65.9906 70.3406 66.1719 70.8797 66.3625C72.5199 66.8666 73.9163 67.9586 74.801 69.4289C75.6856 70.8992 75.9963 72.6444 75.6734 74.3297V74.3297Z" fill="#05CFDC"/>
<path d="M67.9688 37.5C61.9426 37.5 56.0518 39.287 51.0412 42.6349C46.0307 45.9829 42.1254 50.7414 39.8193 56.3089C37.5132 61.8763 36.9098 68.0026 38.0855 73.9129C39.2611 79.8233 42.163 85.2523 46.4241 89.5134C50.6852 93.7745 56.1142 96.6764 62.0246 97.8521C67.935 99.0277 74.0612 98.4243 79.6287 96.1182C85.1961 93.8121 89.9547 89.9068 93.3026 84.8963C96.6506 79.8857 98.4375 73.9949 98.4375 67.9688C98.428 59.8909 95.2149 52.1465 89.5029 46.4346C83.791 40.7227 76.0467 37.5095 67.9688 37.5V37.5ZM67.9688 91.2109C63.3719 91.2109 58.8783 89.8478 55.0561 87.2939C51.2339 84.74 48.2549 81.1101 46.4958 76.8632C44.7366 72.6162 44.2764 67.943 45.1732 63.4344C46.07 58.9259 48.2836 54.7845 51.5341 51.534C54.7845 48.2836 58.9259 46.07 63.4344 45.1732C67.943 44.2763 72.6162 44.7366 76.8632 46.4958C81.1101 48.2549 84.7401 51.2339 87.2939 55.0561C89.8478 58.8782 91.211 63.3719 91.211 67.9688C91.2039 74.1308 88.7529 80.0385 84.3957 84.3957C80.0385 88.7529 74.1308 91.2039 67.9688 91.2109Z" fill="#05CFDC"/>
<path d="M78.9059 50.7531L67.7075 21.3687C68.6564 20.903 69.4195 20.1293 69.872 19.1739C70.3244 18.2186 70.4397 17.138 70.1989 16.1087C69.9581 15.0794 69.3754 14.1622 68.546 13.5067C67.7166 12.8513 66.6896 12.4964 65.6325 12.5H51.9419C52.9555 10.9968 53.3474 9.15936 53.0353 7.3734C52.7232 5.58743 51.7313 3.99181 50.268 2.92148C48.8046 1.85114 46.9835 1.38932 45.1869 1.63295C43.3903 1.87658 41.758 2.80672 40.6325 4.22812C39.507 2.80672 37.8747 1.87658 36.0781 1.63295C34.2815 1.38932 32.4604 1.85114 30.997 2.92148C29.5336 3.99181 28.5418 5.58743 28.2297 7.3734C27.9176 9.15936 28.3095 10.9968 29.3231 12.5H15.6325C14.5754 12.4964 13.5483 12.8513 12.7189 13.5067C11.8896 14.1622 11.3069 15.0794 11.0661 16.1087C10.8253 17.138 10.9405 18.2186 11.393 19.1739C11.8455 20.1293 12.6085 20.903 13.5575 21.3687L2.36372 50.7547C1.6682 52.5898 1.4282 54.5662 1.6643 56.5144C1.9004 58.4626 2.60555 60.3244 3.71928 61.9403C4.83301 63.5561 6.32206 64.8776 8.05873 65.7915C9.79539 66.7055 11.7278 67.1845 13.6903 67.1875H67.5747C69.5379 67.1857 71.4713 66.7075 73.2089 65.7939C74.9466 64.8803 76.4365 63.5586 77.5509 61.9424C78.6653 60.3262 79.3708 58.4636 79.6068 56.5147C79.8428 54.5657 79.6023 52.5886 78.9059 50.7531V50.7531ZM46.1012 4.6875C46.8738 4.6875 47.6291 4.91659 48.2714 5.34582C48.9138 5.77504 49.4145 6.38511 49.7101 7.09889C50.0058 7.81266 50.0832 8.59808 49.9324 9.35582C49.7817 10.1136 49.4097 10.8096 48.8634 11.3559C48.3171 11.9022 47.621 12.2742 46.8633 12.4249C46.1056 12.5757 45.3202 12.4983 44.6064 12.2027C43.8926 11.907 43.2825 11.4063 42.8533 10.7639C42.4241 10.1216 42.195 9.36633 42.195 8.59375C42.195 7.55774 42.6065 6.56417 43.3391 5.83161C44.0717 5.09905 45.0652 4.6875 46.1012 4.6875V4.6875ZM31.2575 8.59375C31.2575 7.82116 31.4866 7.06593 31.9158 6.42355C32.345 5.78117 32.9551 5.2805 33.6689 4.98484C34.3826 4.68919 35.1681 4.61183 35.9258 4.76255C36.6835 4.91328 37.3796 5.28531 37.9259 5.83161C38.4722 6.37791 38.8442 7.07394 38.9949 7.83167C39.1456 8.58941 39.0683 9.37483 38.7726 10.0886C38.477 10.8024 37.9763 11.4124 37.3339 11.8417C36.6915 12.2709 35.9363 12.5 35.1637 12.5C34.1277 12.5 33.1342 12.0884 32.4016 11.3559C31.669 10.6233 31.2575 9.62975 31.2575 8.59375V8.59375ZM15.6325 15.625H65.6325C66.0469 15.625 66.4443 15.7896 66.7373 16.0826C67.0304 16.3757 67.195 16.7731 67.195 17.1875C67.195 17.6019 67.0304 17.9993 66.7373 18.2923C66.4443 18.5854 66.0469 18.75 65.6325 18.75H15.6325C15.2181 18.75 14.8206 18.5854 14.5276 18.2923C14.2346 17.9993 14.07 17.6019 14.07 17.1875C14.07 16.7731 14.2346 16.3757 14.5276 16.0826C14.8206 15.7896 15.2181 15.625 15.6325 15.625V15.625ZM67.5747 64.0625H13.6903C12.2337 64.0603 10.7994 63.7048 9.51039 63.0264C8.2214 62.3481 7.1162 61.3672 6.28961 60.1679C5.46301 58.9685 4.9397 57.5866 4.76455 56.1406C4.58941 54.6945 4.76767 53.2276 5.28404 51.8656L16.709 21.875H64.5559L75.9809 51.8641C76.4976 53.2261 76.6761 54.6932 76.5011 56.1395C76.3261 57.5857 75.8029 58.9679 74.9763 60.1674C74.1496 61.3669 73.0443 62.348 71.7551 63.0264C70.466 63.7049 69.0315 64.0604 67.5747 64.0625V64.0625Z" fill="#072139"/>
<path d="M20.3204 56.25H15.2532C14.8086 56.2496 14.3707 56.1413 13.9772 55.9344C13.5837 55.7275 13.2463 55.4282 12.994 55.0621C12.7416 54.6961 12.5819 54.2743 12.5285 53.8329C12.4752 53.3915 12.5297 52.9438 12.6875 52.5281L15.225 45.8688C15.2981 45.677 15.3327 45.4728 15.3268 45.2676C15.3209 45.0625 15.2746 44.8606 15.1907 44.6734C15.1068 44.4861 14.9868 44.3172 14.8376 44.1764C14.6884 44.0355 14.5129 43.9254 14.3211 43.8524C14.1294 43.7793 13.9251 43.7448 13.72 43.7506C13.5149 43.7565 13.313 43.8028 13.1257 43.8867C12.9385 43.9706 12.7696 44.0906 12.6287 44.2398C12.4879 44.389 12.3778 44.5645 12.3047 44.7563L9.76566 51.4172C9.42904 52.3061 9.31305 53.2633 9.42762 54.2068C9.54219 55.1504 9.88392 56.052 10.4235 56.8345C10.9631 57.617 11.6844 58.2569 12.5255 58.6994C13.3667 59.1418 14.3027 59.3737 15.2532 59.375H20.3204C20.7348 59.375 21.1322 59.2104 21.4252 58.9174C21.7182 58.6243 21.8829 58.2269 21.8829 57.8125C21.8829 57.3981 21.7182 57.0007 21.4252 56.7077C21.1322 56.4146 20.7348 56.25 20.3204 56.25V56.25Z" fill="#072139"/>
</svg>
