<svg width="100" height="100" viewBox="0 0 100 100" fill="none" xmlns="http://www.w3.org/2000/svg">
<path d="M22.6562 73.4375H57.1094V82.8125H22.6562V73.4375Z" fill="#05CFDC"/>
<path d="M49.3234 50H41.4062V70.3125H63.6891C59.4953 66.4984 52.5 59.1234 49.3234 50V50Z" fill="#05CFDC"/>
<path d="M60.2344 98.4375H68.5656L75.9453 83.6766C76.0751 83.4168 76.2747 83.1984 76.5217 83.0458C76.7687 82.8931 77.0534 82.8124 77.3438 82.8125H97.6563V73.4375H60.2344V98.4375Z" fill="#05CFDC"/>
<path d="M72.0596 98.4375H92.9689C94.2121 98.4375 95.4044 97.9436 96.2835 97.0646C97.1626 96.1855 97.6564 94.9932 97.6564 93.75V85.9375H78.3096L72.0596 98.4375Z" fill="#05CFDC"/>
<path d="M22.6562 93.75C22.6562 94.9932 23.1501 96.1855 24.0292 97.0646C24.9083 97.9436 26.1005 98.4375 27.3438 98.4375H57.1094V85.9375H22.6562V93.75Z" fill="#05CFDC"/>
<path d="M38.2812 50H27.3438C26.1005 50 24.9083 50.4939 24.0292 51.3729C23.1501 52.252 22.6562 53.4443 22.6562 54.6875V70.3125H38.2812V50Z" fill="#05CFDC"/>
<path d="M92.9683 50H86.6137C83.434 59.1234 76.4418 66.4984 72.248 70.3125H97.6558V54.6875C97.6558 53.4443 97.162 52.252 96.2829 51.3729C95.4038 50.4939 94.2116 50 92.9683 50Z" fill="#05CFDC"/>
<path d="M66.9422 69C67.2267 69.2479 67.5914 69.3845 67.9688 69.3845C68.3461 69.3845 68.7108 69.2479 68.9953 69C73.8547 64.7656 85.1562 53.5234 85.1562 40.625C85.1563 36.0666 83.3454 31.6949 80.1221 28.4716C76.8989 25.2483 72.5272 23.4375 67.9688 23.4375C63.4103 23.4375 59.0386 25.2483 55.8154 28.4716C52.5921 31.6949 50.7813 36.0666 50.7813 40.625C50.7812 53.5234 62.0828 64.7656 66.9422 69ZM61.7188 40.625C61.7188 39.3889 62.0853 38.1805 62.7721 37.1527C63.4588 36.1249 64.4349 35.3238 65.577 34.8508C66.719 34.3777 67.9757 34.2539 69.1881 34.4951C70.4004 34.7362 71.5141 35.3315 72.3882 36.2056C73.2622 37.0797 73.8575 38.1933 74.0987 39.4057C74.3398 40.6181 74.216 41.8747 73.743 43.0168C73.2699 44.1588 72.4689 45.1349 71.4411 45.8217C70.4133 46.5084 69.2049 46.875 67.9688 46.875C66.3111 46.875 64.7214 46.2165 63.5493 45.0444C62.3772 43.8723 61.7188 42.2826 61.7188 40.625Z" fill="#05CFDC"/>
<path d="M75.7812 1.5625H32.0312C30.788 1.5625 29.5958 2.05636 28.7167 2.93544C27.8376 3.81451 27.3438 5.0068 27.3438 6.25V18.75H12.0875C11.2165 18.747 10.362 18.9881 9.62102 19.446C8.88005 19.9039 8.28221 20.5602 7.89531 21.3406L2.8375 31.4547C2.51335 32.1056 2.34435 32.8228 2.34375 33.55V48.4375C2.34375 49.6807 2.83761 50.873 3.71669 51.7521C4.59576 52.6311 5.78805 53.125 7.03125 53.125H10.3125C10.6711 54.8911 11.6293 56.4789 13.0246 57.6193C14.4199 58.7598 16.1666 59.3828 17.9688 59.3828C19.7709 59.3828 21.5176 58.7598 22.9129 57.6193C24.3082 56.4789 25.2664 54.8911 25.625 53.125H57.1875C57.5461 54.8911 58.5043 56.4789 59.8996 57.6193C61.2949 58.7598 63.0416 59.3828 64.8438 59.3828C66.6459 59.3828 68.3926 58.7598 69.7879 57.6193C71.1832 56.4789 72.1414 54.8911 72.5 53.125H75.7812C77.0245 53.125 78.2167 52.6311 79.0958 51.7521C79.9749 50.873 80.4688 49.6807 80.4688 48.4375V6.25C80.4687 5.0068 79.9749 3.81451 79.0958 2.93544C78.2167 2.05636 77.0245 1.5625 75.7812 1.5625V1.5625ZM30.4688 6.25C30.4688 5.8356 30.6334 5.43817 30.9264 5.14515C31.2194 4.85212 31.6168 4.6875 32.0312 4.6875H75.7812C76.1957 4.6875 76.5931 4.85212 76.8861 5.14515C77.1791 5.43817 77.3438 5.8356 77.3438 6.25V43.75H30.4688V6.25ZM57.1875 50H25.625C25.3839 48.863 24.89 47.795 24.1797 46.875H58.6344C57.9236 47.7948 57.429 48.8629 57.1875 50V50ZM27.3438 43.75H5.46875V35.9375H17.9688C19.212 35.9375 20.4042 35.4436 21.2833 34.5646C22.1624 33.6855 22.6562 32.4932 22.6562 31.25V21.875H27.3438V43.75ZM10.6906 22.7391C10.8194 22.4789 11.0186 22.26 11.2655 22.1073C11.5124 21.9545 11.7972 21.8741 12.0875 21.875H19.5312V31.25C19.5312 31.6644 19.3666 32.0618 19.0736 32.3549C18.7806 32.6479 18.3832 32.8125 17.9688 32.8125H5.65313L10.6906 22.7391ZM5.46875 48.4375V46.875H11.7594C11.0486 47.7948 10.554 48.8629 10.3125 50H7.03125C6.61685 50 6.21942 49.8354 5.9264 49.5424C5.63337 49.2493 5.46875 48.8519 5.46875 48.4375V48.4375ZM17.9688 56.25C17.0417 56.25 16.1354 55.9751 15.3645 55.46C14.5937 54.945 13.9929 54.2129 13.6381 53.3563C13.2833 52.4998 13.1905 51.5573 13.3713 50.648C13.5522 49.7387 13.9986 48.9035 14.6542 48.2479C15.3097 47.5924 16.145 47.1459 17.0543 46.9651C17.9636 46.7842 18.906 46.877 19.7626 47.2318C20.6191 47.5866 21.3512 48.1874 21.8663 48.9583C22.3813 49.7291 22.6562 50.6354 22.6562 51.5625C22.6562 52.8057 22.1624 53.998 21.2833 54.8771C20.4042 55.7561 19.212 56.25 17.9688 56.25ZM64.8438 56.25C63.9167 56.25 63.0104 55.9751 62.2395 55.46C61.4687 54.945 60.8679 54.2129 60.5131 53.3563C60.1583 52.4998 60.0655 51.5573 60.2463 50.648C60.4272 49.7387 60.8736 48.9035 61.5292 48.2479C62.1847 47.5924 63.02 47.1459 63.9293 46.9651C64.8386 46.7842 65.781 46.877 66.6376 47.2318C67.4941 47.5866 68.2262 48.1874 68.7413 48.9583C69.2563 49.7291 69.5312 50.6354 69.5312 51.5625C69.5312 52.8057 69.0374 53.998 68.1583 54.8771C67.2792 55.7561 66.087 56.25 64.8438 56.25ZM77.3438 48.4375C77.3438 48.8519 77.1791 49.2493 76.8861 49.5424C76.5931 49.8354 76.1957 50 75.7812 50H72.5C72.2589 48.863 71.765 47.795 71.0547 46.875H77.3438V48.4375Z" fill="#072139"/>
</svg>
