<svg width="100" height="100" viewBox="0 0 100 100" fill="none" xmlns="http://www.w3.org/2000/svg">
<path d="M97.0638 88.6078L92.1075 83.6515C91.2601 82.8112 90.1241 82.3257 88.9311 82.294C87.7381 82.2624 86.5779 82.687 85.6872 83.4812L82.7028 80.4969C87.9008 74.723 90.6387 67.1476 90.3332 59.3846C90.0277 51.6216 86.703 44.2848 81.0673 38.9373C75.4317 33.5897 67.9307 30.6541 60.1624 30.756C52.3941 30.8578 44.9726 33.9891 39.4791 39.4825C33.9856 44.976 30.8544 52.3975 30.7526 60.1658C30.6507 67.9341 33.5863 75.4351 38.9338 81.0707C44.2814 86.7064 51.6182 90.0311 59.3812 90.3366C67.1441 90.6421 74.7195 87.9042 80.4934 82.7062L83.4763 85.6906C82.6737 86.5775 82.2437 87.7395 82.2757 88.9352C82.3077 90.1309 82.7992 91.2683 83.6481 92.1109L88.6044 97.0687C89.4834 97.9475 90.6755 98.4412 91.9184 98.4412C93.1614 98.4412 94.3535 97.9475 95.2325 97.0687L97.0638 95.239C97.4993 94.8037 97.8449 94.2868 98.0806 93.7179C98.3164 93.149 98.4378 92.5392 98.4378 91.9234C98.4378 91.3076 98.3164 90.6978 98.0806 90.1289C97.8449 89.56 97.4993 89.0431 97.0638 88.6078V88.6078ZM79.4184 62.2344C79.004 62.2344 78.6066 62.0697 78.3136 61.7767C78.0206 61.4837 77.8559 61.0863 77.8559 60.6719C77.8506 56.1151 76.038 51.7465 72.8159 48.5244C69.5938 45.3023 65.2252 43.4897 60.6685 43.4844C60.2541 43.4844 59.8566 43.3198 59.5636 43.0267C59.2706 42.7337 59.106 42.3363 59.106 41.9219C59.106 41.5075 59.2706 41.11 59.5636 40.817C59.8566 40.524 60.2541 40.3594 60.6685 40.3594C66.0538 40.3656 71.2167 42.5076 75.0247 46.3156C78.8327 50.1236 80.9747 55.2866 80.9809 60.6719C80.9809 61.0863 80.8163 61.4837 80.5233 61.7767C80.2303 62.0697 79.8328 62.2344 79.4184 62.2344Z" fill="#05CFDC"/>
<path d="M40.625 1.56248C34.1096 1.55792 27.6965 3.18315 21.9697 6.29019C16.2428 9.39724 11.3841 13.8874 7.83588 19.3519C4.28765 24.8164 2.16262 31.0816 1.65425 37.5771C1.14589 44.0726 2.27034 50.5922 4.92523 56.5421C7.58012 62.4921 11.6811 67.6835 16.8549 71.6436C22.0286 75.6038 28.1107 78.207 34.5475 79.2161C40.9843 80.2252 47.5713 79.6083 53.7087 77.4214C59.8461 75.2346 65.3391 71.5473 69.6875 66.6953C69.744 66.6383 69.7963 66.5772 69.8437 66.5125C74.84 60.8849 78.1031 53.933 79.24 46.4938C80.3769 39.0547 79.3391 31.4455 76.2517 24.5825C73.1643 17.7195 68.1588 11.8953 61.838 7.81109C55.5171 3.72692 48.1505 1.55696 40.625 1.56248V1.56248ZM14.3359 65.0937C14.9564 60.5586 16.7429 56.2621 19.5208 52.624C22.2987 48.9859 25.9729 46.1307 30.1844 44.3375L38.5937 76.5015C33.3271 76.2095 28.1908 74.7532 23.5547 72.2375L24.9969 59.5515C25.0439 59.1398 24.9254 58.7263 24.6676 58.4019C24.4097 58.0776 24.0336 57.8689 23.6219 57.8219C23.4176 57.796 23.2102 57.8113 23.0119 57.8669C22.8136 57.9225 22.6285 58.0173 22.4674 58.1456C22.3063 58.2739 22.1726 58.4331 22.0741 58.614C21.9755 58.7948 21.9142 58.9935 21.8937 59.1984L20.614 70.4484C18.3243 68.9083 16.218 67.1118 14.3359 65.0937V65.0937ZM52.9984 24.8812C49.7667 24.4458 46.8364 22.755 44.8422 20.175C45.9456 18.993 46.9325 17.7074 47.789 16.3359C49.1992 17.3246 50.3898 18.594 51.2863 20.0645C52.1827 21.535 52.7656 23.1748 52.9984 24.8812V24.8812ZM28.2437 24.9312C28.483 23.0643 29.1424 21.276 30.1723 19.7006C31.2022 18.1252 32.5759 16.8039 34.19 15.8358C35.8042 14.8678 37.6167 14.2782 39.4915 14.1115C41.3663 13.9448 43.2544 14.2053 45.014 14.8734C43.1923 17.7376 40.7282 20.1378 37.8171 21.8836C34.9061 23.6295 31.6283 24.6729 28.2437 24.9312V24.9312ZM42.5547 22.3328C43.8396 23.9253 45.4269 25.2477 47.2253 26.2238C49.0236 27.1999 50.9974 27.8105 53.0328 28.0203C52.679 31.0581 51.223 33.8605 48.9408 35.8964C46.6586 37.9322 43.7087 39.06 40.6504 39.066C37.5921 39.072 34.6379 37.9557 32.3477 35.9288C30.0575 33.9018 28.5906 31.1051 28.225 28.0687C33.4878 27.7195 38.5045 25.7114 42.5547 22.3328V22.3328ZM37.3984 59.5656L40.625 53.3734L43.8609 59.5609L40.625 71.9437L37.3984 59.5656ZM40.625 42.1875C41.3359 42.1875 42.0312 42.2312 42.7344 42.2859L40.625 46.5062L38.5156 42.2875C39.2187 42.2312 39.914 42.1875 40.625 42.1875ZM45.0359 55.0656L42.3797 49.9844L45.9984 42.7469C46.7156 42.8937 47.425 43.0594 48.1203 43.264L45.0359 55.0656ZM35.2515 42.7469L38.8703 49.9844L36.214 55.064L33.1312 43.2625C33.8281 43.0594 34.5312 42.8922 35.2515 42.7469V42.7469ZM60.6453 70.4547L59.364 59.2047C59.3431 58.9999 59.2816 58.8014 59.1829 58.6208C59.0842 58.4402 58.9505 58.2811 58.7895 58.1529C58.6286 58.0247 58.4436 57.9299 58.2455 57.8741C58.0474 57.8183 57.8401 57.8027 57.6359 57.8281C57.2242 57.8751 56.8481 58.0838 56.5902 58.4082C56.3324 58.7326 56.2139 59.1461 56.2609 59.5578L57.7047 72.2437C53.0684 74.7591 47.9321 76.2153 42.6656 76.5078L51.0703 44.3469C55.2798 46.1398 58.9523 48.9938 61.7292 52.6301C64.5062 56.2664 66.2926 60.5607 66.914 65.0937C65.0352 67.1134 62.932 68.912 60.6453 70.4547V70.4547ZM69.5125 61.975C68.2965 56.7605 65.6903 51.9729 61.9709 48.1211C58.2515 44.2694 53.5579 41.4975 48.389 40.1C51.3768 38.3899 53.7157 35.7402 55.0416 32.5632C56.3675 29.3862 56.6062 25.86 55.7205 22.5333C54.8348 19.2066 52.8744 16.2659 50.1444 14.1687C47.4143 12.0716 44.0676 10.9356 40.625 10.9375C24.7094 10.9375 19.0015 32.125 32.8609 40.1031C27.6921 41.5006 22.9985 44.2725 19.2791 48.1243C15.5597 51.976 12.9535 56.7636 11.7375 61.9781C7.77897 56.6291 5.38337 50.286 4.8176 43.6556C4.25183 37.0252 5.53812 30.368 8.53313 24.4256C11.5281 18.4832 16.1143 13.4891 21.7805 9.99969C27.4467 6.5103 33.9705 4.66267 40.625 4.66267C47.2795 4.66267 53.8032 6.5103 59.4695 9.99969C65.1357 13.4891 69.7218 18.4832 72.7168 24.4256C75.7118 30.368 76.9981 37.0252 76.4324 43.6556C75.8666 50.286 73.471 56.6291 69.5125 61.9781V61.975Z" fill="#072139"/>
</svg>
