<svg width="23" height="23" viewBox="0 0 23 23" fill="none" xmlns="http://www.w3.org/2000/svg">
<path d="M16.292 1.91675H6.70866C4.06229 1.91675 1.91699 4.06205 1.91699 6.70842V16.2917C1.91699 18.9381 4.06229 21.0834 6.70866 21.0834H16.292C18.9384 21.0834 21.0837 18.9381 21.0837 16.2917V6.70842C21.0837 4.06205 18.9384 1.91675 16.292 1.91675Z" stroke="#FCFCFC" stroke-width="2" stroke-linecap="round" stroke-linejoin="round"/>
<path d="M15.3332 10.8963C15.4515 11.6939 15.3153 12.5084 14.9439 13.2241C14.5725 13.9398 13.985 14.5201 13.2648 14.8826C12.5446 15.2451 11.7284 15.3713 10.9323 15.2432C10.1363 15.1151 9.4009 14.7393 8.83077 14.1692C8.26064 13.599 7.88479 12.8636 7.7567 12.0676C7.6286 11.2715 7.75478 10.4554 8.11728 9.73515C8.47978 9.01495 9.06014 8.42738 9.77583 8.05603C10.4915 7.68467 11.3061 7.54844 12.1036 7.66671C12.9172 7.78735 13.6704 8.16645 14.2519 8.74801C14.8335 9.32956 15.2126 10.0827 15.3332 10.8963Z" stroke="#FCFCFC" stroke-width="2" stroke-linecap="round" stroke-linejoin="round"/>
<path d="M16.7705 6.22925H16.7805" stroke="#FCFCFC" stroke-width="2" stroke-linecap="round" stroke-linejoin="round"/>
</svg>
