<svg width="335" height="78" viewBox="0 0 335 78" fill="none" xmlns="http://www.w3.org/2000/svg">
<path d="M122.577 32.0275H116.627L115.19 35.125H113.218L119.301 22.7H121.123L126.855 35.125H123.964L122.577 32.0275ZM122.092 30.9425L119.652 25.465L117.128 30.9425H122.092ZM135.291 22.875H138.082L144.065 31.1525V22.875H146.739V35.125H144.834L137.965 25.5V35.125H135.291V22.875ZM156.184 22.875H161.197C163.504 22.875 165.264 23.3825 166.478 24.3975C167.704 25.4008 168.317 26.865 168.317 28.79C168.317 30.855 167.715 32.43 166.512 33.515C165.32 34.5884 163.581 35.125 161.297 35.125H156.184V22.875ZM161.531 34.04C162.824 34.04 163.799 33.6025 164.456 32.7275C165.113 31.8409 165.442 30.5283 165.442 28.79C165.442 27.215 165.108 26.0192 164.439 25.2025C163.782 24.3742 162.813 23.96 161.531 23.96H159.025V34.04H161.531ZM187.261 32.4125C187.573 33.2059 187.829 33.8184 188.029 34.25C188.241 34.6817 188.436 34.8917 188.614 34.88V35.125H185.84C185.628 34.8917 185.433 34.5941 185.255 34.2325C185.088 33.8709 184.91 33.4159 184.72 32.8675C184.442 32.0975 184.18 31.4967 183.935 31.065C183.69 30.6333 183.372 30.3358 182.982 30.1725H182.732H180.258V35.125H177.434V22.875H182.732C184.481 22.875 185.829 23.1492 186.776 23.6975C187.734 24.2458 188.213 25.1792 188.213 26.4975C188.213 28.2825 187.294 29.4083 185.456 29.875C185.835 30.12 186.163 30.4467 186.442 30.855C186.731 31.2517 187.004 31.7709 187.261 32.4125ZM180.258 29.0875H182.748C183.595 29.0875 184.247 28.9067 184.704 28.545C185.172 28.1833 185.406 27.5008 185.406 26.4975C185.406 25.5175 185.172 24.8525 184.704 24.5025C184.247 24.1408 183.595 23.96 182.748 23.96H180.258V29.0875ZM203.454 35.3C202.062 35.3 200.859 35.0492 199.844 34.5475C198.831 34.0459 198.051 33.3225 197.505 32.3775C196.97 31.4209 196.703 30.2775 196.703 28.9475C196.703 27.6408 196.97 26.5208 197.505 25.5875C198.051 24.6542 198.831 23.9425 199.844 23.4525C200.859 22.9508 202.062 22.7 203.454 22.7C204.836 22.7 206.034 22.9508 207.047 23.4525C208.062 23.9425 208.836 24.6542 209.37 25.5875C209.917 26.5208 210.189 27.6408 210.189 28.9475C210.189 30.2775 209.917 31.4209 209.37 32.3775C208.836 33.3225 208.062 34.0459 207.047 34.5475C206.045 35.0492 204.847 35.3 203.454 35.3ZM203.454 34.215C204.714 34.215 205.672 33.7659 206.329 32.8675C206.986 31.9692 207.315 30.6625 207.315 28.9475C207.315 27.2675 206.986 25.99 206.329 25.115C205.672 24.2283 204.714 23.785 203.454 23.785C202.196 23.785 201.232 24.2283 200.563 25.115C199.906 25.99 199.577 27.2675 199.577 28.9475C199.577 30.6625 199.906 31.9692 200.563 32.8675C201.221 33.7659 202.184 34.215 203.454 34.215ZM233.437 22.875V35.125H230.579V26.4975L227.053 35.125H225.298L220.886 26.2175V35.125H219.315V22.875H222.206L226.735 32.08L230.529 22.875H233.437ZM242.867 22.875H253.68V23.96H245.708V28.02H252.761V29.105H245.708V34.04H253.68V35.125H242.867V22.875ZM262.356 22.875H267.37C269.676 22.875 271.436 23.3825 272.651 24.3975C273.876 25.4008 274.489 26.865 274.489 28.79C274.489 30.855 273.888 32.43 272.684 33.515C271.492 34.5884 269.754 35.125 267.47 35.125H262.356V22.875ZM267.704 34.04C268.996 34.04 269.971 33.6025 270.629 32.7275C271.285 31.8409 271.615 30.5283 271.615 28.79C271.615 27.215 271.28 26.0192 270.612 25.2025C269.954 24.3742 268.985 23.96 267.704 23.96H265.197V34.04H267.704ZM291.31 32.0275H285.361L283.923 35.125H281.951L288.035 22.7H289.856L295.589 35.125H292.697L291.31 32.0275ZM290.826 30.9425L288.386 25.465L285.862 30.9425H290.826Z" fill="#FCFCFC"/>
<path d="M113.888 46.6H117.068C118.22 46.6 119.112 46.812 119.744 47.236C120.376 47.66 120.692 48.308 120.692 49.18C120.692 50.044 120.38 50.688 119.756 51.112C119.132 51.536 118.236 51.748 117.068 51.748H115.136V55H113.888V46.6ZM117.092 51.172C118.66 51.172 119.444 50.508 119.444 49.18C119.444 47.844 118.66 47.176 117.092 47.176H115.136V51.172H117.092ZM126.884 55.12C125.94 55.12 125.128 54.948 124.448 54.604C123.768 54.26 123.248 53.764 122.888 53.116C122.528 52.46 122.348 51.676 122.348 50.764C122.348 49.868 122.528 49.1 122.888 48.46C123.248 47.812 123.768 47.32 124.448 46.984C125.128 46.648 125.94 46.48 126.884 46.48C127.828 46.48 128.636 46.648 129.308 46.984C129.988 47.32 130.508 47.812 130.868 48.46C131.228 49.1 131.408 49.868 131.408 50.764C131.408 51.676 131.228 52.46 130.868 53.116C130.508 53.764 129.988 54.26 129.308 54.604C128.636 54.948 127.828 55.12 126.884 55.12ZM126.884 54.544C127.924 54.544 128.728 54.216 129.296 53.56C129.864 52.904 130.148 51.972 130.148 50.764C130.148 49.58 129.864 48.668 129.296 48.028C128.736 47.38 127.932 47.056 126.884 47.056C125.836 47.056 125.028 47.376 124.46 48.016C123.892 48.656 123.608 49.572 123.608 50.764C123.608 51.972 123.892 52.904 124.46 53.56C125.028 54.216 125.836 54.544 126.884 54.544ZM133.679 46.6H134.927V54.424H140.207V55H133.679V46.6ZM143.476 47.176H139.924V46.6H148.264V47.176H144.724V55H143.476V47.176ZM154.771 52.816H149.935L148.843 55H148.003L152.371 46.48H153.019L157.135 55H155.791L154.771 52.816ZM154.495 52.24L152.431 47.824L150.223 52.24H154.495ZM156.21 46.6H157.59L160.938 53.692L164.538 46.6H165.354L161.022 55.12H160.374L156.21 46.6ZM171.188 52.816H166.352L165.26 55H164.42L168.788 46.48H169.436L173.552 55H172.208L171.188 52.816ZM170.912 52.24L168.848 47.824L166.64 52.24H170.912ZM179.191 46.6H182.455C184.023 46.6 185.215 46.944 186.031 47.632C186.847 48.32 187.255 49.328 187.255 50.656C187.255 52.04 186.843 53.112 186.019 53.872C185.203 54.624 184.039 55 182.527 55H179.191V46.6ZM182.695 54.424C183.759 54.424 184.575 54.1 185.143 53.452C185.719 52.804 186.007 51.872 186.007 50.656C186.007 49.512 185.727 48.648 185.167 48.064C184.607 47.472 183.783 47.176 182.695 47.176H180.439V54.424H182.695ZM189.532 46.6H196.648V47.176H190.78V50.212H195.964V50.776H190.78V54.424H196.648V55H189.532V46.6ZM202.411 55.12C201.203 55.12 200.251 54.884 199.555 54.412C198.859 53.94 198.475 53.268 198.403 52.396H199.483C199.539 53.132 199.803 53.676 200.275 54.028C200.755 54.372 201.459 54.544 202.387 54.544C203.211 54.544 203.839 54.4 204.271 54.112C204.711 53.824 204.931 53.412 204.931 52.876C204.931 52.556 204.847 52.288 204.679 52.072C204.511 51.856 204.223 51.664 203.815 51.496C203.415 51.328 202.851 51.172 202.123 51.028C200.963 50.804 200.087 50.516 199.495 50.164C198.911 49.804 198.619 49.3 198.619 48.652C198.619 47.932 198.955 47.392 199.627 47.032C200.299 46.664 201.183 46.48 202.279 46.48C203.391 46.48 204.255 46.68 204.871 47.08C205.495 47.472 205.855 48.02 205.951 48.724H204.883C204.763 48.14 204.479 47.716 204.031 47.452C203.591 47.188 202.979 47.056 202.195 47.056C201.435 47.056 200.855 47.18 200.455 47.428C200.063 47.676 199.867 48.02 199.867 48.46C199.867 48.724 199.943 48.948 200.095 49.132C200.247 49.316 200.511 49.484 200.887 49.636C201.271 49.788 201.815 49.936 202.519 50.08C203.383 50.256 204.075 50.448 204.595 50.656C205.123 50.864 205.519 51.136 205.783 51.472C206.047 51.8 206.179 52.22 206.179 52.732C206.179 53.484 205.839 54.072 205.159 54.496C204.487 54.912 203.571 55.12 202.411 55.12ZM208.972 46.6H210.22V55H208.972V46.6ZM217.636 55.12C216.66 55.12 215.824 54.952 215.128 54.616C214.432 54.272 213.9 53.776 213.532 53.128C213.164 52.48 212.979 51.708 212.979 50.812C212.979 49.916 213.16 49.144 213.52 48.496C213.88 47.848 214.4 47.352 215.08 47.008C215.76 46.656 216.568 46.48 217.504 46.48C218.64 46.48 219.572 46.728 220.3 47.224C221.036 47.712 221.48 48.388 221.632 49.252H220.552C220.408 48.548 220.076 48.008 219.556 47.632C219.036 47.248 218.364 47.056 217.54 47.056C216.508 47.056 215.7 47.388 215.116 48.052C214.532 48.708 214.24 49.624 214.24 50.8C214.24 51.992 214.536 52.916 215.128 53.572C215.728 54.22 216.568 54.544 217.648 54.544C218.152 54.544 218.612 54.492 219.028 54.388C219.444 54.276 219.84 54.104 220.216 53.872V51.148H217.276V50.608H221.464V53.956C220.992 54.332 220.428 54.62 219.772 54.82C219.124 55.02 218.412 55.12 217.636 55.12ZM223.9 46.6H225.16L230.272 53.116V46.6H231.328V55H230.704L224.956 47.692V55H223.9V46.6ZM233.82 46.6H240.936V47.176H235.068V50.212H240.252V50.776H235.068V54.424H240.936V55H233.82V46.6ZM249.291 53.236C249.475 53.7 249.643 54.072 249.795 54.352C249.955 54.624 250.111 54.808 250.263 54.904V55H248.955C248.819 54.848 248.691 54.656 248.571 54.424C248.459 54.192 248.335 53.896 248.199 53.536C247.975 52.944 247.747 52.488 247.515 52.168C247.283 51.84 246.999 51.624 246.663 51.52H246.351H244.131V55H242.883V46.6H246.351C247.503 46.6 248.391 46.804 249.015 47.212C249.647 47.612 249.963 48.228 249.963 49.06C249.963 50.3 249.263 51.072 247.863 51.376C248.167 51.528 248.431 51.752 248.655 52.048C248.879 52.336 249.091 52.732 249.291 53.236ZM246.375 50.956C247.943 50.956 248.727 50.324 248.727 49.06C248.727 47.804 247.943 47.176 246.375 47.176H244.131V50.956H246.375ZM255.925 46.6H262.813V47.176H257.173V50.212H262.009V50.776H257.173V55H255.925V46.6ZM268.468 55.12C267.076 55.12 266.068 54.812 265.444 54.196C264.828 53.572 264.52 52.676 264.52 51.508V46.6H265.768V51.784C265.768 52.68 265.98 53.364 266.404 53.836C266.828 54.308 267.516 54.544 268.468 54.544C269.404 54.544 270.084 54.312 270.508 53.848C270.94 53.384 271.156 52.696 271.156 51.784V46.6H272.404V51.508C272.404 52.676 272.096 53.572 271.48 54.196C270.864 54.812 269.86 55.12 268.468 55.12ZM281.304 53.236C281.488 53.7 281.656 54.072 281.808 54.352C281.968 54.624 282.124 54.808 282.276 54.904V55H280.968C280.832 54.848 280.704 54.656 280.584 54.424C280.472 54.192 280.348 53.896 280.212 53.536C279.988 52.944 279.76 52.488 279.528 52.168C279.296 51.84 279.012 51.624 278.676 51.52H278.364H276.144V55H274.896V46.6H278.364C279.516 46.6 280.404 46.804 281.028 47.212C281.66 47.612 281.976 48.228 281.976 49.06C281.976 50.3 281.276 51.072 279.876 51.376C280.18 51.528 280.444 51.752 280.668 52.048C280.892 52.336 281.104 52.732 281.304 53.236ZM278.388 50.956C279.956 50.956 280.74 50.324 280.74 49.06C280.74 47.804 279.956 47.176 278.388 47.176H276.144V50.956H278.388ZM284.03 46.6H285.29L290.402 53.116V46.6H291.458V55H290.834L285.086 47.692V55H284.03V46.6ZM294.441 46.6H295.689V55H294.441V46.6ZM301.449 47.176H297.897V46.6H306.237V47.176H302.697V55H301.449V47.176ZM311.9 55.12C310.508 55.12 309.5 54.812 308.876 54.196C308.26 53.572 307.952 52.676 307.952 51.508V46.6H309.2V51.784C309.2 52.68 309.412 53.364 309.836 53.836C310.26 54.308 310.948 54.544 311.9 54.544C312.836 54.544 313.516 54.312 313.94 53.848C314.372 53.384 314.588 52.696 314.588 51.784V46.6H315.836V51.508C315.836 52.676 315.528 53.572 314.912 54.196C314.296 54.812 313.292 55.12 311.9 55.12ZM324.736 53.236C324.92 53.7 325.088 54.072 325.24 54.352C325.4 54.624 325.556 54.808 325.708 54.904V55H324.4C324.264 54.848 324.136 54.656 324.016 54.424C323.904 54.192 323.78 53.896 323.644 53.536C323.42 52.944 323.192 52.488 322.96 52.168C322.728 51.84 322.444 51.624 322.108 51.52H321.796H319.576V55H318.328V46.6H321.796C322.948 46.6 323.836 46.804 324.46 47.212C325.092 47.612 325.408 48.228 325.408 49.06C325.408 50.3 324.708 51.072 323.308 51.376C323.612 51.528 323.876 51.752 324.1 52.048C324.324 52.336 324.536 52.732 324.736 53.236ZM321.82 50.956C323.388 50.956 324.172 50.324 324.172 49.06C324.172 47.804 323.388 47.176 321.82 47.176H319.576V50.956H321.82ZM327.462 46.6H334.578V47.176H328.71V50.212H333.894V50.776H328.71V54.424H334.578V55H327.462V46.6Z" fill="#FCFCFC"/>
<path fill-rule="evenodd" clip-rule="evenodd" d="M56.0173 9.6023C57.7379 10.3705 59.3978 11.287 60.9775 12.346C66.4536 16.0168 70.7216 21.234 73.2416 27.3381C74.9572 31.4928 75.8106 35.9314 75.7753 40.3859L79.7249 46.3292C80.0633 44.2863 80.2354 42.2107 80.2354 40.122C80.2354 30.0761 76.2571 20.4416 69.1764 13.3381C64.3684 8.51468 58.3968 5.12648 51.9239 3.44834L56.0173 9.6023ZM32.9289 8.10063L36.2549 2.76181C31.0012 3.64246 25.9684 5.63257 21.5004 8.62752C15.2912 12.7896 10.4517 18.7053 7.59388 25.6267C4.73609 32.548 3.98836 40.164 5.44524 47.5115C5.55349 48.0574 5.67354 48.6 5.80524 49.1393L9.35115 43.8164C9.2165 42.5938 9.14903 41.3626 9.14978 40.1278C9.15244 35.7375 10.0177 31.3909 11.6961 27.3363C13.3745 23.2817 15.8331 19.5988 18.9314 16.4981C22.0166 13.3869 25.6861 10.9204 29.7278 9.24121C30.7767 8.80545 31.8452 8.42497 32.9289 8.10063ZM42.4737 2.2439C43.1638 2.24397 43.8538 2.26287 44.5431 2.30057C43.8572 2.26288 43.1683 2.2439 42.4774 2.2439C42.4762 2.2439 42.475 2.2439 42.4737 2.2439ZM67.5988 62.0495C68.1471 61.4169 68.6709 60.7651 69.1689 60.0955L72.5124 63.0762C71.7712 64.0526 70.9843 64.9899 70.1558 65.8858L67.5988 62.0495ZM59.927 73.7123L57.4794 69.9587C56.7402 70.3336 55.9866 70.6814 55.2196 71.0007C51.1777 72.6845 46.8448 73.5521 42.4687 73.5546C38.0922 73.5571 33.7584 72.694 29.7147 71.0152C29.6216 70.9766 29.5288 70.9376 29.4362 70.8977H20.4661C24.8202 74.032 29.8095 76.2144 35.1113 77.2721C42.4355 78.7338 50.0275 77.9837 56.9269 75.1167C57.9495 74.6916 58.9505 74.223 59.927 73.7123Z" fill="#FCFCFC"/>
<path d="M13.7055 61.0246V66.0627L0 66.1627L27.4111 24.7731L54.8222 66.0627H17.817V61.0246H45.5195L27.4111 33.03L9.59415 61.0246H13.7055Z" fill="#FCFCFC"/>
<path d="M41.1519 4.15135L43.854 0L87.7107 66.0064H82.0987L44.2697 33.4184L65.7707 66.0064H60.2743L30.1357 20.7567L32.8378 16.6054L72.9532 52.0994L41.1519 4.15135Z" fill="#FCFCFC"/>
</svg>
