<svg width="100" height="100" viewBox="0 0 100 100" fill="none" xmlns="http://www.w3.org/2000/svg">
<path d="M58.6794 56.5422C58.5035 57.2111 58.5124 57.9151 58.705 58.5793C58.8976 59.2435 59.2668 59.8431 59.7732 60.3141C60.5645 60.9089 61.4148 61.421 62.3107 61.8422V52.6563C62.1763 52.6907 62.0544 52.6969 61.9169 52.7391C61.0818 53.0175 60.3386 53.519 59.768 54.1893C59.1973 54.8597 58.8209 55.6733 58.6794 56.5422V56.5422Z" fill="#05CFDC"/>
<path d="M66.5627 66.9297C66.1689 66.7907 65.8064 66.6578 65.4424 66.5235V78.3484C66.6806 78.042 67.8019 77.3793 68.6675 76.4423C69.5331 75.5053 70.1051 74.3352 70.3127 73.0766C70.5691 71.7687 70.3263 70.4122 69.6322 69.2744C68.9381 68.1366 67.843 67.3001 66.5627 66.9297V66.9297Z" fill="#05CFDC"/>
<path d="M64.0625 32.8125C57.5728 32.8125 51.2289 34.7369 45.8329 38.3424C40.4369 41.9479 36.2312 47.0725 33.7477 53.0682C31.2642 59.0639 30.6144 65.6614 31.8805 72.0264C33.1466 78.3914 36.2717 84.238 40.8606 88.8269C45.4495 93.4159 51.2961 96.5409 57.6611 97.807C64.0261 99.0731 70.6236 98.4233 76.6193 95.9398C82.615 93.4563 87.7396 89.2506 91.3451 83.8546C94.9506 78.4587 96.875 72.1147 96.875 65.625C96.8651 56.9256 93.4049 48.5854 87.2535 42.434C81.1021 36.2826 72.7619 32.8224 64.0625 32.8125ZM73.3891 73.5938C73.0681 75.5861 72.1273 77.4265 70.7004 78.8535C69.2734 80.2804 67.433 81.2212 65.4406 81.5422V84.375C65.4406 84.7894 65.276 85.1868 64.983 85.4799C64.69 85.7729 64.2925 85.9375 63.8781 85.9375C63.4637 85.9375 63.0663 85.7729 62.7733 85.4799C62.4803 85.1868 62.3156 84.7894 62.3156 84.375V81.6609C59.7946 81.652 57.3419 80.841 55.3125 79.3453C54.9657 79.1174 54.7236 78.761 54.6395 78.3546C54.5554 77.9482 54.6362 77.525 54.8641 77.1781C55.092 76.8313 55.4484 76.5892 55.8548 76.5051C56.2612 76.421 56.6844 76.5018 57.0313 76.7297C58.554 77.8858 60.4101 78.5179 62.3219 78.5313V65.2891C60.7316 64.6445 59.2304 63.7991 57.8547 62.7734C56.8941 61.9512 56.1774 60.8814 55.7823 59.6803C55.3873 58.4792 55.3291 57.1928 55.6141 55.9609C55.8591 54.5285 56.494 53.1912 57.4491 52.0959C58.4041 51.0005 59.6424 50.1894 61.0281 49.7516C61.453 49.6227 61.885 49.5184 62.3219 49.4391V46.875C62.3219 46.4606 62.4865 46.0632 62.7795 45.7701C63.0726 45.4771 63.47 45.3125 63.8844 45.3125C64.2988 45.3125 64.6962 45.4771 64.9892 45.7701C65.2823 46.0632 65.4469 46.4606 65.4469 46.875V49.3203C67.4614 49.5245 69.37 50.3217 70.9313 51.6109C71.0826 51.7495 71.2051 51.9166 71.2919 52.1026C71.3787 52.2885 71.428 52.4898 71.437 52.6948C71.446 52.8998 71.4145 53.1046 71.3443 53.2974C71.2742 53.4903 71.1667 53.6674 71.0281 53.8188C70.8895 53.9701 70.7225 54.0926 70.5365 54.1794C70.3506 54.2662 70.1493 54.3154 69.9443 54.3244C69.7393 54.3334 69.5345 54.302 69.3417 54.2318C69.1488 54.1617 68.9717 54.0542 68.8203 53.9156C67.8396 53.1533 66.6767 52.6605 65.4469 52.4859V63.1844C66.1125 63.4422 66.8188 63.7063 67.6078 63.9844C69.586 64.5926 71.27 65.9097 72.3369 67.683C73.4037 69.4564 73.7784 71.5612 73.3891 73.5938V73.5938Z" fill="#05CFDC"/>
<path d="M62.2801 27.3953L64.3754 25.3125C64.8518 24.8668 65.2338 24.3298 65.4984 23.7335C65.7631 23.1372 65.9051 22.4937 65.9159 21.8414C65.9268 21.1891 65.8064 20.5413 65.5617 19.9365C65.3171 19.3317 64.9533 18.7823 64.492 18.3209C64.0306 17.8596 63.4812 17.4958 62.8764 17.2512C62.2716 17.0065 61.6238 16.8861 60.9715 16.897C60.3192 16.9078 59.6757 17.0498 59.0794 17.3145C58.4831 17.5791 57.9461 17.9611 57.5004 18.4375L55.4254 20.5297C51.0748 17.3009 45.9883 15.2071 40.6254 14.4375V10.9375H42.1879C43.4311 10.9375 44.6234 10.4436 45.5025 9.56456C46.3815 8.68549 46.8754 7.4932 46.8754 6.25C46.8754 5.0068 46.3815 3.81451 45.5025 2.93544C44.6234 2.05636 43.4311 1.5625 42.1879 1.5625H29.6879C28.4447 1.5625 27.2524 2.05636 26.3733 2.93544C25.4943 3.81451 25.0004 5.0068 25.0004 6.25C25.0004 7.4932 25.4943 8.68549 26.3733 9.56456C27.2524 10.4436 28.4447 10.9375 29.6879 10.9375H31.2504V14.4375C25.8896 15.2085 20.8052 17.3028 16.4566 20.5313L14.3754 18.4375C13.9297 17.9611 13.3927 17.5791 12.7964 17.3145C12.2001 17.0498 11.5566 16.9078 10.9043 16.897C10.252 16.8861 9.60417 17.0065 8.99936 17.2512C8.39456 17.4958 7.84515 17.8596 7.38383 18.3209C6.92251 18.7823 6.5587 19.3317 6.31407 19.9365C6.06944 20.5413 5.94897 21.1891 5.95985 21.8414C5.97073 22.4937 6.11272 23.1372 6.37738 23.7335C6.64203 24.3298 7.02395 24.8668 7.50039 25.3125L9.59258 27.3891C6.50828 31.5597 4.45738 36.4025 3.60831 41.5197C2.75924 46.6369 3.13623 51.8825 4.70832 56.8257C6.28042 61.7689 9.00276 66.2687 12.6517 69.9554C16.3007 73.6421 20.7723 76.4105 25.699 78.0334C30.6258 79.6562 35.8673 80.0871 40.993 79.2907C46.1187 78.4943 50.9823 76.4932 55.1844 73.452C59.3865 70.4107 62.8071 66.416 65.1654 61.7959C67.5237 57.1758 68.7523 52.0622 68.7504 46.875C68.748 39.8544 66.4786 33.0222 62.2801 27.3953V27.3953ZM59.7129 20.6406C59.8741 20.4778 60.0659 20.3485 60.2772 20.26C60.4885 20.1715 60.7153 20.1257 60.9444 20.1251C61.1735 20.1245 61.4005 20.1692 61.6122 20.2566C61.824 20.3441 62.0164 20.4725 62.1784 20.6345C62.3404 20.7965 62.4688 20.9889 62.5563 21.2007C62.6437 21.4124 62.6884 21.6394 62.6878 21.8685C62.6872 22.0976 62.6414 22.3244 62.5529 22.5357C62.4644 22.747 62.3351 22.9388 62.1723 23.1L60.2973 24.9641C59.5258 24.1075 58.7101 23.2918 57.8535 22.5203L59.7129 20.6406ZM28.1254 6.25C28.1254 5.8356 28.29 5.43817 28.583 5.14515C28.8761 4.85212 29.2735 4.6875 29.6879 4.6875H42.1879C42.6023 4.6875 42.9997 4.85212 43.2928 5.14515C43.5858 5.43817 43.7504 5.8356 43.7504 6.25C43.7504 6.6644 43.5858 7.06183 43.2928 7.35485C42.9997 7.64788 42.6023 7.8125 42.1879 7.8125H29.6879C29.2735 7.8125 28.8761 7.64788 28.583 7.35485C28.29 7.06183 28.1254 6.6644 28.1254 6.25ZM34.3754 10.9375H37.5004V14.1422C36.9785 14.1172 36.466 14.0625 35.9379 14.0625C35.4098 14.0625 34.8973 14.1172 34.3754 14.1422V10.9375ZM9.70352 23.1C9.5407 22.9388 9.41135 22.747 9.32288 22.5357C9.23441 22.3244 9.18857 22.0976 9.188 21.8685C9.18742 21.6394 9.23213 21.4124 9.31954 21.2007C9.40695 20.9889 9.53535 20.7965 9.69735 20.6345C9.85936 20.4725 10.0518 20.3441 10.2636 20.2566C10.4753 20.1692 10.7023 20.1245 10.9314 20.1251C11.1605 20.1257 11.3872 20.1715 11.5986 20.26C11.8099 20.3485 12.0017 20.4778 12.1629 20.6406L14.027 22.5156C13.1704 23.2871 12.3547 24.1028 11.5832 24.9594L9.70352 23.1ZM35.9379 76.5625C30.0663 76.5625 24.3265 74.8214 19.4444 71.5593C14.5623 68.2972 10.7572 63.6606 8.51022 58.2359C6.26324 52.8112 5.67533 46.8421 6.82083 41.0833C7.96633 35.3244 10.7938 30.0346 14.9457 25.8828C19.0975 21.7309 24.3873 18.9034 30.1462 17.7579C35.905 16.6124 41.8741 17.2004 47.2988 19.4473C52.7235 21.6943 57.36 25.4994 60.6222 30.3815C63.8843 35.2636 65.6254 41.0034 65.6254 46.875C65.6167 54.7459 62.4861 62.292 56.9205 67.8576C51.3549 73.4232 43.8088 76.5538 35.9379 76.5625V76.5625Z" fill="#072139"/>
<path d="M35.9375 20.3125C30.6839 20.3125 25.5484 21.8704 21.1802 24.7891C16.812 27.7078 13.4074 31.8563 11.397 36.71C9.38651 41.5636 8.86048 46.9045 9.8854 52.0571C10.9103 57.2097 13.4402 61.9427 17.155 65.6575C20.8698 69.3724 25.6028 71.9022 30.7554 72.9271C35.908 73.952 41.2489 73.426 46.1025 71.4156C50.9562 69.4051 55.1047 66.0005 58.0234 61.6323C60.9421 57.2642 62.5 52.1286 62.5 46.875C62.4922 39.8326 59.6911 33.0809 54.7114 28.1012C49.7316 23.1214 42.9799 20.3204 35.9375 20.3125V20.3125ZM35.9375 70.3125C31.302 70.3125 26.7706 68.9379 22.9163 66.3626C19.0621 63.7872 16.058 60.1268 14.2841 55.8441C12.5102 51.5615 12.046 46.849 12.9504 42.3026C13.8547 37.7561 16.0869 33.58 19.3647 30.3022C22.6425 27.0244 26.8187 24.7922 31.3651 23.8878C35.9115 22.9835 40.624 23.4476 44.9067 25.2216C49.1893 26.9955 52.8497 29.9995 55.4251 33.8538C58.0004 37.7081 59.375 42.2395 59.375 46.875C59.368 53.0889 56.8964 59.0462 52.5026 63.4401C48.1087 67.8339 42.1514 70.3055 35.9375 70.3125V70.3125Z" fill="#072139"/>
<path d="M35.9375 29.6875C36.8004 29.6875 37.5 28.9879 37.5 28.125C37.5 27.2621 36.8004 26.5625 35.9375 26.5625C35.0746 26.5625 34.375 27.2621 34.375 28.125C34.375 28.9879 35.0746 29.6875 35.9375 29.6875Z" fill="#072139"/>
<path d="M35.9375 67.1875C36.8004 67.1875 37.5 66.4879 37.5 65.625C37.5 64.7621 36.8004 64.0625 35.9375 64.0625C35.0746 64.0625 34.375 64.7621 34.375 65.625C34.375 66.4879 35.0746 67.1875 35.9375 67.1875Z" fill="#072139"/>
<path d="M17.1875 48.4375C18.0504 48.4375 18.75 47.7379 18.75 46.875C18.75 46.0121 18.0504 45.3125 17.1875 45.3125C16.3246 45.3125 15.625 46.0121 15.625 46.875C15.625 47.7379 16.3246 48.4375 17.1875 48.4375Z" fill="#072139"/>
<path d="M54.6875 48.4375C55.5504 48.4375 56.25 47.7379 56.25 46.875C56.25 46.0121 55.5504 45.3125 54.6875 45.3125C53.8246 45.3125 53.125 46.0121 53.125 46.875C53.125 47.7379 53.8246 48.4375 54.6875 48.4375Z" fill="#072139"/>
<path d="M21.575 32.5125C21.3564 32.731 21.2076 33.0094 21.1472 33.3125C21.0869 33.6156 21.1178 33.9298 21.2361 34.2153C21.3543 34.5009 21.5546 34.7449 21.8116 34.9166C22.0685 35.0883 22.3706 35.18 22.6797 35.18C22.9887 35.18 23.2909 35.0883 23.5478 34.9166C23.8048 34.7449 24.005 34.5009 24.1233 34.2153C24.2415 33.9298 24.2725 33.6156 24.2121 33.3125C24.1518 33.0094 24.0029 32.731 23.7844 32.5125C23.4914 32.2195 23.094 32.055 22.6797 32.055C22.2654 32.055 21.868 32.2195 21.575 32.5125V32.5125Z" fill="#072139"/>
<path d="M48.0906 59.0281C47.8721 59.2466 47.7232 59.525 47.6629 59.8281C47.6025 60.1313 47.6335 60.4455 47.7517 60.731C47.87 61.0165 48.0702 61.2606 48.3272 61.4323C48.5841 61.604 48.8863 61.6957 49.1953 61.6957C49.5044 61.6957 49.8065 61.604 50.0634 61.4323C50.3204 61.2606 50.5207 61.0165 50.6389 60.731C50.7572 60.4455 50.7881 60.1313 50.7278 59.8281C50.6674 59.525 50.5186 59.2466 50.3 59.0281C50.007 58.7352 49.6096 58.5706 49.1953 58.5706C48.781 58.5706 48.3836 58.7352 48.0906 59.0281V59.0281Z" fill="#072139"/>
<path d="M21.575 59.0281C21.3564 59.2466 21.2076 59.525 21.1472 59.8281C21.0869 60.1313 21.1178 60.4455 21.2361 60.731C21.3543 61.0165 21.5546 61.2606 21.8116 61.4323C22.0685 61.604 22.3706 61.6957 22.6797 61.6957C22.9887 61.6957 23.2909 61.604 23.5478 61.4323C23.8048 61.2606 24.005 61.0165 24.1233 60.731C24.2415 60.4455 24.2725 60.1313 24.2121 59.8281C24.1518 59.525 24.0029 59.2466 23.7844 59.0281C23.4914 58.7352 23.094 58.5706 22.6797 58.5706C22.2654 58.5706 21.868 58.7352 21.575 59.0281V59.0281Z" fill="#072139"/>
<path d="M48.0906 32.5125C47.8721 32.731 47.7232 33.0094 47.6629 33.3125C47.6025 33.6156 47.6335 33.9298 47.7517 34.2153C47.87 34.5009 48.0702 34.7449 48.3272 34.9166C48.5841 35.0883 48.8863 35.18 49.1953 35.18C49.5044 35.18 49.8065 35.0883 50.0634 34.9166C50.3204 34.7449 50.5207 34.5009 50.6389 34.2153C50.7572 33.9298 50.7881 33.6156 50.7278 33.3125C50.6674 33.0094 50.5186 32.731 50.3 32.5125C50.007 32.2195 49.6096 32.055 49.1953 32.055C48.781 32.055 48.3836 32.2195 48.0906 32.5125Z" fill="#072139"/>
<path d="M36.636 48.2813L49.136 42.0313C49.5069 41.846 49.789 41.521 49.9203 41.1278C50.0515 40.7345 50.0212 40.3053 49.836 39.9344C49.6507 39.5635 49.3258 39.2814 48.9325 39.1501C48.5393 39.0188 48.11 39.0491 47.7391 39.2344L37.5 44.3469V34.375C37.5 33.9606 37.3354 33.5632 37.0424 33.2701C36.7494 32.9771 36.3519 32.8125 35.9375 32.8125C35.5231 32.8125 35.1257 32.9771 34.8327 33.2701C34.5396 33.5632 34.375 33.9606 34.375 34.375V46.875C34.3736 47.142 34.4406 47.405 34.5696 47.6388C34.6987 47.8725 34.8855 48.0693 35.1123 48.2104C35.339 48.3514 35.5981 48.432 35.8649 48.4444C36.1316 48.4568 36.3971 48.4006 36.636 48.2813Z" fill="#072139"/>
</svg>
