<svg width="100" height="100" viewBox="0 0 100 100" fill="none" xmlns="http://www.w3.org/2000/svg">
<path d="M96.8756 73.8828L89.3646 69.5469C89.798 66.9502 89.798 64.2998 89.3646 61.7031L96.8756 57.3672C97.2344 57.16 97.4963 56.8187 97.6035 56.4184C97.7108 56.0182 97.6546 55.5917 97.4474 55.2328L90.5021 43.2016C90.2949 42.8427 89.9536 42.5808 89.5534 42.4736C89.1531 42.3663 88.7266 42.4225 88.3677 42.6297L80.8396 46.975C78.8124 45.3015 76.5227 43.9743 74.0631 43.0469V34.375C74.0631 33.9606 73.8984 33.5632 73.6054 33.2701C73.3124 32.9771 72.915 32.8125 72.5006 32.8125H58.6146C58.2002 32.8125 57.8028 32.9771 57.5098 33.2701C57.2167 33.5632 57.0521 33.9606 57.0521 34.375V43.0469C54.5928 43.9754 52.3036 45.3037 50.2771 46.9781L42.7474 42.6328C42.3885 42.4256 41.9621 42.3695 41.5618 42.4767C41.1615 42.584 40.8203 42.8458 40.613 43.2047L33.6693 55.2359C33.4621 55.5948 33.406 56.0213 33.5132 56.4216C33.6204 56.8218 33.8823 57.1631 34.2412 57.3703L41.7505 61.7031C41.3172 64.2998 41.3172 66.9502 41.7505 69.5469L34.2412 73.8828C33.8823 74.09 33.6204 74.4313 33.5132 74.8316C33.406 75.2318 33.4621 75.6583 33.6693 76.0172L40.613 88.0484C40.8203 88.4073 41.1615 88.6692 41.5618 88.7764C41.9621 88.8837 42.3885 88.8275 42.7474 88.6203L50.2771 84.275C52.3036 85.9494 54.5928 87.2777 57.0521 88.2062V96.875C57.0521 97.2894 57.2167 97.6868 57.5098 97.9799C57.8028 98.2729 58.2002 98.4375 58.6146 98.4375H72.5006C72.915 98.4375 73.3124 98.2729 73.6054 97.9799C73.8984 97.6868 74.0631 97.2894 74.0631 96.875V88.2031C76.5224 87.2746 78.8115 85.9463 80.8381 84.2719L88.3662 88.6172C88.7251 88.8244 89.1515 88.8805 89.5518 88.7733C89.9521 88.666 90.2933 88.4042 90.5006 88.0453L97.4459 76.0141C97.6522 75.6557 97.708 75.2301 97.6011 74.8306C97.4942 74.4311 97.2333 74.0903 96.8756 73.8828V73.8828ZM65.5584 78.125C63.0861 78.125 60.6694 77.3919 58.6137 76.0184C56.5581 74.6449 54.956 72.6926 54.0099 70.4085C53.0638 68.1245 52.8162 65.6111 53.2985 63.1864C53.7809 60.7616 54.9714 58.5343 56.7195 56.7862C58.4677 55.038 60.695 53.8475 63.1197 53.3652C65.5445 52.8829 68.0578 53.1304 70.3419 54.0765C72.626 55.0226 74.5782 56.6248 75.9517 58.6804C77.3253 60.736 78.0584 63.1527 78.0584 65.625C78.0584 68.9402 76.7414 72.1196 74.3972 74.4638C72.053 76.808 68.8736 78.125 65.5584 78.125Z" fill="#05CFDC"/>
<path d="M48.8747 54.1218C52.7754 51.5146 55.7344 47.7223 57.3151 43.3047C58.8957 38.8871 59.0141 34.0784 57.6528 29.5884C56.2915 25.0984 53.5226 21.1651 49.7549 18.369C45.9873 15.573 41.4204 14.0624 36.7286 14.0603C32.0368 14.0582 27.4686 15.5647 23.6984 18.3573C19.9282 21.15 17.1558 25.0808 15.7905 29.5696C14.4251 34.0584 14.5392 38.8672 16.1158 43.2862C17.6925 47.7052 20.6481 51.5002 24.5465 54.1109C25.2424 54.5649 25.84 55.1542 26.3035 55.8438C26.7671 56.5334 27.0873 57.3092 27.245 58.125C26.339 58.4641 25.561 59.0767 25.0189 59.8778C24.4767 60.6789 24.1972 61.6289 24.2192 62.596C24.2412 63.5631 24.5635 64.4994 25.1415 65.2751C25.7195 66.0507 26.5245 66.6274 27.445 66.925C27.7584 69.1615 28.8695 71.2094 30.5736 72.6913C32.2778 74.1732 34.46 74.9894 36.7184 74.9894C38.9768 74.9894 41.159 74.1732 42.8632 72.6913C44.5673 71.2094 45.6784 69.1615 45.9918 66.925C46.9121 66.6268 47.7167 66.0498 48.2943 65.2738C48.8718 64.4979 49.1937 63.5614 49.2151 62.5943C49.2366 61.6273 48.9566 60.6775 48.4141 59.8766C47.8715 59.0758 47.0932 58.4636 46.1872 58.125C46.3427 57.3112 46.6609 56.5372 47.1227 55.8494C47.5845 55.1615 48.1804 54.5739 48.8747 54.1218V54.1218ZM36.7184 71.875C35.3331 71.8729 33.9876 71.4117 32.8924 70.5636C31.7971 69.7154 31.0139 68.5281 30.6653 67.1875H42.77C42.4219 68.5281 41.639 69.7155 40.544 70.5638C39.4489 71.412 38.1035 71.8731 36.7184 71.875V71.875ZM44.5309 64.0625H28.9059C28.4915 64.0625 28.0941 63.8978 27.801 63.6048C27.508 63.3118 27.3434 62.9144 27.3434 62.5C27.3434 62.0856 27.508 61.6881 27.801 61.3951C28.0941 61.1021 28.4915 60.9375 28.9059 60.9375H44.5309C44.9453 60.9375 45.3427 61.1021 45.6358 61.3951C45.9288 61.6881 46.0934 62.0856 46.0934 62.5C46.0934 62.9144 45.9288 63.3118 45.6358 63.6048C45.3427 63.8978 44.9453 64.0625 44.5309 64.0625ZM43.0621 57.8125H38.2809V47.4625L48.8325 35.4047C49.1056 35.0926 49.2435 34.6849 49.216 34.2711C49.1884 33.8574 48.9976 33.4715 48.6856 33.1984C48.3735 32.9253 47.9658 32.7874 47.552 32.8149C47.1383 32.8425 46.7524 33.0332 46.4793 33.3453L36.7184 44.5015L26.9559 33.3453C26.6759 33.0609 26.2977 32.8945 25.8989 32.8801C25.5002 32.8657 25.111 33.0044 24.8112 33.2678C24.5114 33.5312 24.3238 33.8993 24.2868 34.2966C24.2498 34.694 24.3662 35.0904 24.6121 35.4047L35.1559 47.4625V57.8125H30.37C30.164 56.5369 29.6946 55.3182 28.9917 54.2341C28.2887 53.1499 27.3676 52.2241 26.2871 51.5156C22.9452 49.2781 20.4112 46.0254 19.0594 42.2377C17.7075 38.4499 17.6094 34.3278 18.7795 30.48C19.9496 26.6322 22.3259 23.2626 25.5575 20.8686C28.7892 18.4747 32.705 17.1833 36.7268 17.1851C40.7486 17.1869 44.6632 18.4818 47.8928 20.8787C51.1223 23.2755 53.4956 26.6473 54.6622 30.4961C55.8288 34.345 55.727 38.467 54.3717 42.2535C53.0164 46.0401 50.4795 49.2905 47.1356 51.525C46.0564 52.2318 45.1367 53.1561 44.4353 54.2388C43.7339 55.3215 43.2662 56.5387 43.0621 57.8125V57.8125Z" fill="#072139"/>
<path d="M39.8438 32.8125H33.5938C33.1793 32.8125 32.7819 32.9771 32.4889 33.2701C32.1959 33.5632 32.0312 33.9606 32.0312 34.375C32.0312 34.7894 32.1959 35.1868 32.4889 35.4799C32.7819 35.7729 33.1793 35.9375 33.5938 35.9375H39.8438C40.2582 35.9375 40.6556 35.7729 40.9486 35.4799C41.2416 35.1868 41.4062 34.7894 41.4062 34.375C41.4062 33.9606 41.2416 33.5632 40.9486 33.2701C40.6556 32.9771 40.2582 32.8125 39.8438 32.8125Z" fill="#072139"/>
<path d="M36.7188 9.375C37.1332 9.375 37.5306 9.21038 37.8236 8.91735C38.1166 8.62433 38.2812 8.2269 38.2812 7.8125V3.125C38.2812 2.7106 38.1166 2.31317 37.8236 2.02015C37.5306 1.72712 37.1332 1.5625 36.7188 1.5625C36.3043 1.5625 35.9069 1.72712 35.6139 2.02015C35.3209 2.31317 35.1562 2.7106 35.1562 3.125V7.8125C35.1562 8.2269 35.3209 8.62433 35.6139 8.91735C35.9069 9.21038 36.3043 9.375 36.7188 9.375Z" fill="#072139"/>
<path d="M15.7266 17.1547C16.0213 17.4393 16.416 17.5968 16.8257 17.5932C17.2354 17.5897 17.6273 17.4254 17.917 17.1357C18.2067 16.846 18.371 16.4541 18.3745 16.0444C18.3781 15.6347 18.2206 15.24 17.936 14.9453L14.6219 11.6312C14.4778 11.482 14.3054 11.363 14.1148 11.2811C13.9241 11.1992 13.7191 11.1561 13.5116 11.1543C13.3042 11.1525 13.0984 11.192 12.9064 11.2706C12.7144 11.3492 12.5399 11.4652 12.3932 11.6119C12.2465 11.7586 12.1305 11.933 12.0519 12.1251C11.9733 12.3171 11.9338 12.5228 11.9356 12.7303C11.9374 12.9378 11.9805 13.1428 12.0624 13.3334C12.1443 13.5241 12.2633 13.6965 12.4126 13.8406L15.7266 17.1547Z" fill="#072139"/>
<path d="M57.7095 54.7203C57.4148 54.4357 57.0201 54.2782 56.6104 54.2817C56.2008 54.2853 55.8089 54.4496 55.5192 54.7393C55.2295 55.029 55.0651 55.4209 55.0616 55.8306C55.058 56.2403 55.2155 56.635 55.5001 56.9297L58.8157 60.2437C58.9608 60.3889 59.1331 60.5041 59.3226 60.5827C59.5122 60.6613 59.7154 60.7018 59.9207 60.7019C60.1259 60.7019 60.3291 60.6616 60.5188 60.5831C60.7084 60.5046 60.8807 60.3896 61.0259 60.2445C61.1711 60.0994 61.2862 59.9272 61.3648 59.7376C61.4435 59.548 61.4839 59.3448 61.484 59.1396C61.4841 58.9344 61.4437 58.7311 61.3653 58.5415C61.2868 58.3518 61.1717 58.1795 61.0267 58.0344L57.7095 54.7203Z" fill="#072139"/>
<path d="M8.59375 34.375H3.90625C3.49185 34.375 3.09442 34.5396 2.8014 34.8326C2.50837 35.1257 2.34375 35.5231 2.34375 35.9375C2.34375 36.3519 2.50837 36.7493 2.8014 37.0424C3.09442 37.3354 3.49185 37.5 3.90625 37.5H8.59375C9.00815 37.5 9.40558 37.3354 9.6986 37.0424C9.99163 36.7493 10.1562 36.3519 10.1562 35.9375C10.1562 35.5231 9.99163 35.1257 9.6986 34.8326C9.40558 34.5396 9.00815 34.375 8.59375 34.375Z" fill="#072139"/>
<path d="M69.5312 34.375H64.8438C64.4293 34.375 64.0319 34.5396 63.7389 34.8326C63.4459 35.1257 63.2812 35.5231 63.2812 35.9375C63.2812 36.3519 63.4459 36.7493 63.7389 37.0424C64.0319 37.3354 64.4293 37.5 64.8438 37.5H69.5312C69.9457 37.5 70.3431 37.3354 70.6361 37.0424C70.9291 36.7493 71.0938 36.3519 71.0938 35.9375C71.0938 35.5231 70.9291 35.1257 70.6361 34.8326C70.3431 34.5396 69.9457 34.375 69.5312 34.375Z" fill="#072139"/>
<path d="M15.7266 54.7203L12.4126 58.0343C12.2633 58.1785 12.1443 58.3509 12.0624 58.5415C11.9805 58.7322 11.9374 58.9372 11.9356 59.1447C11.9338 59.3521 11.9733 59.5579 12.0519 59.7499C12.1305 59.9419 12.2465 60.1164 12.3932 60.2631C12.5399 60.4098 12.7144 60.5258 12.9064 60.6044C13.0984 60.6829 13.3042 60.7225 13.5116 60.7207C13.7191 60.7189 13.9241 60.6758 14.1148 60.5939C14.3054 60.512 14.4778 60.393 14.6219 60.2437L17.936 56.9297C18.2206 56.635 18.3781 56.2403 18.3745 55.8306C18.371 55.4209 18.2067 55.029 17.917 54.7393C17.6273 54.4496 17.2354 54.2853 16.8257 54.2817C16.416 54.2782 16.0213 54.4357 15.7266 54.7203V54.7203Z" fill="#072139"/>
<path d="M58.8157 11.6312L55.5001 14.9452C55.2155 15.2399 55.058 15.6346 55.0616 16.0443C55.0651 16.454 55.2295 16.8459 55.5192 17.1356C55.8089 17.4253 56.2008 17.5896 56.6104 17.5932C57.0201 17.5967 57.4148 17.4392 57.7095 17.1546L61.0267 13.8405C61.1717 13.6954 61.2868 13.523 61.3653 13.3334C61.4437 13.1438 61.4841 12.9405 61.484 12.7353C61.4839 12.5301 61.4435 12.3269 61.3648 12.1373C61.2862 11.9477 61.1711 11.7755 61.0259 11.6304C60.8807 11.4853 60.7084 11.3703 60.5188 11.2918C60.3291 11.2133 60.1259 11.173 59.9207 11.173C59.7154 11.1731 59.5122 11.2136 59.3226 11.2922C59.1331 11.3708 58.9608 11.486 58.8157 11.6312V11.6312Z" fill="#072139"/>
</svg>
