<svg width="152" height="180" viewBox="0 0 152 180" fill="none" xmlns="http://www.w3.org/2000/svg">
<path fill-rule="evenodd" clip-rule="evenodd" d="M96.3043 16.1375C99.1771 17.4285 101.948 18.9689 104.586 20.7486C113.729 26.9177 120.855 35.6858 125.062 45.9442C127.927 52.9266 129.351 60.386 129.292 67.8724L135.887 77.8606C136.452 74.4274 136.739 70.939 136.739 67.4288C136.739 50.5457 130.097 34.3541 118.275 22.4159C110.247 14.3097 100.277 8.61545 89.4699 5.79517L96.3043 16.1375ZM57.7556 13.6138L63.3087 4.64139C54.5371 6.12142 46.1343 9.46599 38.6745 14.4993C28.3075 21.4941 20.2274 31.436 15.456 43.068C10.6845 54.6999 9.43613 67.4994 11.8685 79.8476C12.0493 80.765 12.2497 81.6769 12.4696 82.5832L18.3899 73.6376C18.1651 71.5829 18.0524 69.5137 18.0537 67.4385C18.0581 60.0603 19.5028 52.7553 22.3051 45.9412C25.1074 39.1271 29.2123 32.9376 34.3852 27.7266C39.5362 22.4979 45.663 18.3526 52.411 15.5307C54.1622 14.7983 55.9462 14.1589 57.7556 13.6138ZM73.6917 3.771C74.8439 3.77111 75.996 3.80288 77.1468 3.86624C76.0016 3.8029 74.8515 3.771 73.698 3.771C73.6959 3.771 73.6938 3.771 73.6917 3.771ZM115.641 104.28C116.556 103.217 117.431 102.122 118.262 100.996L123.845 106.006C122.607 107.646 121.293 109.222 119.91 110.727L115.641 104.28ZM102.832 123.881L98.7454 117.572C97.5113 118.202 96.253 118.787 94.9724 119.323C88.224 122.153 80.9898 123.611 73.6834 123.616C66.3764 123.62 59.1405 122.169 52.3892 119.348C52.2338 119.283 52.0788 119.217 51.9241 119.15H36.9476C44.2172 124.418 52.5474 128.086 61.3994 129.863C73.6279 132.32 86.3036 131.059 97.8229 126.241C99.5303 125.526 101.202 124.739 102.832 123.881Z" fill="#FCFCFC"/>
<path d="M25.6593 102.558V111.025L2.77637 111.193L48.5423 41.6338L94.3081 111.025H32.5238V102.558H78.7764L48.5423 55.5103L18.7949 102.558H25.6593Z" fill="#FCFCFC"/>
<path d="M71.4884 6.97674L75.9998 0L149.224 110.93H139.854L76.6939 56.1628L112.592 110.93H103.415L53.0957 34.8837L57.6071 27.907L124.584 87.5581L71.4884 6.97674Z" fill="#FCFCFC"/>
<path d="M24.1631 172.535H28.5454V172.903H24.9571V174.845H28.0339V175.206H24.9571V177.907H24.1631V172.535ZM32.1433 177.984C31.2577 177.984 30.6164 177.787 30.2193 177.393C29.8274 176.994 29.6314 176.421 29.6314 175.674V172.535H30.4254V175.85C30.4254 176.423 30.5603 176.861 30.8301 177.163C31.0998 177.465 31.5376 177.615 32.1433 177.615C32.7388 177.615 33.1714 177.467 33.4411 177.17C33.716 176.874 33.8535 176.434 33.8535 175.85V172.535H34.6474V175.674C34.6474 176.421 34.4515 176.994 34.0596 177.393C33.6677 177.787 33.0289 177.984 32.1433 177.984ZM40.31 176.779C40.4271 177.075 40.534 177.313 40.6307 177.493C40.7325 177.666 40.8317 177.784 40.9284 177.846V177.907H40.0962C40.0097 177.81 39.9283 177.687 39.8519 177.539C39.7806 177.39 39.7018 177.201 39.6152 176.971C39.4728 176.592 39.3277 176.3 39.1801 176.096C39.0324 175.886 38.8518 175.748 38.638 175.681H38.4395H37.0271V177.907H36.2331V172.535H38.4395C39.1724 172.535 39.7374 172.665 40.1344 172.926C40.5365 173.182 40.7375 173.576 40.7375 174.108C40.7375 174.901 40.2922 175.395 39.4015 175.589C39.5949 175.686 39.7629 175.83 39.9054 176.019C40.0479 176.203 40.1828 176.457 40.31 176.779ZM38.4548 175.321C39.4523 175.321 39.9512 174.917 39.9512 174.108C39.9512 173.305 39.4523 172.903 38.4548 172.903H37.0271V175.321H38.4548ZM42.0444 172.535H42.846L46.0984 176.702V172.535H46.7703V177.907H46.3733L42.7162 173.233V177.907H42.0444V172.535ZM48.6683 172.535H49.4623V177.907H48.6683V172.535ZM53.1268 172.903H50.8669V172.535H56.173V172.903H53.9208V177.907H53.1268V172.903ZM59.7758 177.984C58.8902 177.984 58.2488 177.787 57.8518 177.393C57.46 176.994 57.264 176.421 57.264 175.674V172.535H58.058V175.85C58.058 176.423 58.1929 176.861 58.4626 177.163C58.7324 177.465 59.1701 177.615 59.7758 177.615C60.3713 177.615 60.804 177.467 61.0737 177.17C61.3485 176.874 61.486 176.434 61.486 175.85V172.535H62.28V175.674C62.28 176.421 62.084 176.994 61.6921 177.393C61.3002 177.787 60.6614 177.984 59.7758 177.984ZM67.9426 176.779C68.0596 177.075 68.1665 177.313 68.2632 177.493C68.365 177.666 68.4643 177.784 68.561 177.846V177.907H67.7288C67.6422 177.81 67.5608 177.687 67.4845 177.539C67.4132 177.39 67.3344 177.201 67.2478 176.971C67.1053 176.592 66.9603 176.3 66.8126 176.096C66.665 175.886 66.4843 175.748 66.2706 175.681H66.0721H64.6596V177.907H63.8656V172.535H66.0721C66.805 172.535 67.37 172.665 67.767 172.926C68.169 173.182 68.3701 173.576 68.3701 174.108C68.3701 174.901 67.9247 175.395 67.034 175.589C67.2275 175.686 67.3954 175.83 67.5379 176.019C67.6804 176.203 67.8153 176.457 67.9426 176.779ZM66.0873 175.321C67.0849 175.321 67.5837 174.917 67.5837 174.108C67.5837 173.305 67.0849 172.903 66.0873 172.903H64.6596V175.321H66.0873ZM69.677 172.535H74.2044V172.903H70.471V174.845H73.7692V175.206H70.471V177.539H74.2044V177.907H69.677V172.535ZM78.2425 172.535H79.0365V177.907H78.2425V172.535ZM80.9375 172.535H81.7392L84.9916 176.702V172.535H85.6634V177.907H85.2664L81.6094 173.233V177.907H80.9375V172.535ZM89.7348 172.535H91.758C92.4909 172.535 93.058 172.67 93.4605 172.942C93.8624 173.213 94.0637 173.628 94.0637 174.185C94.0637 174.738 93.8652 175.149 93.4682 175.421C93.0711 175.692 92.5006 175.827 91.758 175.827H90.5288V177.907H89.7348V172.535ZM91.7732 175.459C92.7706 175.459 93.2697 175.034 93.2697 174.185C93.2697 173.33 92.7706 172.903 91.7732 172.903H90.5288V175.459H91.7732ZM98.0032 177.984C97.4028 177.984 96.8864 177.874 96.4533 177.654C96.0209 177.434 95.6899 177.117 95.4608 176.702C95.2318 176.283 95.1173 175.781 95.1173 175.198C95.1173 174.625 95.2318 174.134 95.4608 173.725C95.6899 173.31 96.0209 172.995 96.4533 172.781C96.8864 172.566 97.4028 172.458 98.0032 172.458C98.6042 172.458 99.1178 172.566 99.5454 172.781C99.9785 172.995 100.309 173.31 100.538 173.725C100.767 174.134 100.881 174.625 100.881 175.198C100.881 175.781 100.767 176.283 100.538 176.702C100.309 177.117 99.9785 177.434 99.5454 177.654C99.1178 177.874 98.6042 177.984 98.0032 177.984ZM98.0032 177.615C98.6653 177.615 99.1768 177.405 99.5377 176.986C99.8993 176.567 100.08 175.97 100.08 175.198C100.08 174.441 99.8993 173.858 99.5377 173.448C99.1817 173.034 98.6702 172.827 98.0032 172.827C97.3369 172.827 96.8226 173.031 96.461 173.441C96.1 173.85 95.9189 174.435 95.9189 175.198C95.9189 175.97 96.1 176.567 96.461 176.986C96.8226 177.405 97.3369 177.615 98.0032 177.615ZM102.326 172.535H103.12V177.539H106.48V177.907H102.326V172.535ZM108.559 172.903H106.299V172.535H111.605V172.903H109.353V177.907H108.559V172.903ZM115.746 176.51H112.669L111.974 177.907H111.44L114.219 172.458H114.631L117.25 177.907H116.394L115.746 176.51ZM115.57 176.142L114.257 173.318L112.852 176.142H115.57ZM116.661 172.535H117.539L119.669 177.071L121.959 172.535H122.479L119.723 177.984H119.31L116.661 172.535ZM126.19 176.51H123.114L122.419 177.907H121.885L124.664 172.458H125.076L127.695 177.907H126.839L126.19 176.51ZM126.015 176.142L124.702 173.318L123.297 176.142H126.015Z" fill="#FCFCFC"/>
<path d="M7.95418 156.6H3.01244L1.81865 159.07H0.180664L5.23345 149.163H6.74651L11.5078 159.07H9.10632L7.95418 156.6ZM7.55162 155.735L5.52496 151.367L3.42888 155.735H7.55162ZM18.515 149.302H20.8332L25.8027 155.902V149.302H28.0237V159.07H26.4412L20.736 151.395V159.07H18.515V149.302ZM35.868 149.302H40.0324C41.948 149.302 43.4102 149.707 44.4189 150.516C45.4368 151.317 45.9458 152.484 45.9458 154.019C45.9458 155.665 45.4461 156.921 44.4467 157.786C43.4564 158.642 42.0128 159.07 40.1157 159.07H35.868V149.302ZM40.31 158.205C41.3835 158.205 42.1932 157.856 42.7393 157.158C43.2852 156.451 43.5583 155.405 43.5583 154.019C43.5583 152.763 43.2806 151.809 42.7254 151.158C42.1794 150.497 41.3743 150.167 40.31 150.167H38.2279V158.205H40.31ZM61.6808 156.907C61.9399 157.54 62.1527 158.028 62.3193 158.372C62.4952 158.716 62.6571 158.884 62.8051 158.874V159.07H60.5008C60.325 158.884 60.1631 158.646 60.015 158.358C59.8762 158.07 59.7281 157.707 59.5708 157.27C59.3395 156.656 59.122 156.177 58.9184 155.833C58.7148 155.489 58.4511 155.251 58.1271 155.121H57.9189H55.8645V159.07H53.5186V149.302H57.9189C59.3719 149.302 60.4916 149.521 61.2782 149.958C62.0741 150.396 62.472 151.139 62.472 152.191C62.472 153.614 61.7085 154.512 60.1816 154.884C60.4963 155.079 60.7692 155.339 61.0006 155.665C61.2412 155.981 61.468 156.396 61.6808 156.907ZM55.8645 154.256H57.9328C58.6362 154.256 59.1775 154.111 59.5569 153.823C59.9456 153.535 60.1399 152.991 60.1399 152.191C60.1399 151.409 59.9456 150.879 59.5569 150.6C59.1775 150.312 58.6362 150.167 57.9328 150.167H55.8645V154.256ZM75.1312 159.209C73.9749 159.209 72.9755 159.009 72.1329 158.609C71.291 158.21 70.6434 157.633 70.1895 156.879C69.7453 156.117 69.5232 155.205 69.5232 154.144C69.5232 153.103 69.7453 152.21 70.1895 151.465C70.6434 150.721 71.291 150.154 72.1329 149.763C72.9755 149.363 73.9749 149.163 75.1312 149.163C76.2792 149.163 77.2738 149.363 78.1157 149.763C78.9583 150.154 79.601 150.721 80.0452 151.465C80.4991 152.21 80.7254 153.103 80.7254 154.144C80.7254 155.205 80.4991 156.117 80.0452 156.879C79.601 157.633 78.9583 158.21 78.1157 158.609C77.2828 159.009 76.2882 159.209 75.1312 159.209ZM75.1312 158.344C76.1772 158.344 76.9733 157.986 77.5188 157.27C78.065 156.553 78.3378 155.512 78.3378 154.144C78.3378 152.805 78.065 151.786 77.5188 151.088C76.9733 150.382 76.1772 150.028 75.1312 150.028C74.086 150.028 73.285 150.382 72.7298 151.088C72.1842 151.786 71.9108 152.805 71.9108 154.144C71.9108 155.512 72.1842 156.553 72.7298 157.27C73.276 157.986 74.0762 158.344 75.1312 158.344ZM100.035 149.302V159.07H97.6612V152.191L94.7323 159.07H93.2748L89.6101 151.967V159.07H88.3052V149.302H90.7067L94.4685 156.642L97.6196 149.302H100.035ZM107.867 149.302H116.849V150.167H110.227V153.405H116.085V154.27H110.227V158.205H116.849V159.07H107.867V149.302ZM124.055 149.302H128.219C130.135 149.302 131.597 149.707 132.606 150.516C133.623 151.317 134.133 152.484 134.133 154.019C134.133 155.665 133.633 156.921 132.634 157.786C131.643 158.642 130.2 159.07 128.303 159.07H124.055V149.302ZM128.497 158.205C129.57 158.205 130.38 157.856 130.926 157.158C131.472 156.451 131.745 155.405 131.745 154.019C131.745 152.763 131.468 151.809 130.912 151.158C130.366 150.497 129.561 150.167 128.497 150.167H126.415V158.205H128.497ZM148.104 156.6H143.163L141.969 159.07H140.331L145.384 149.163H146.897L151.658 159.07H149.257L148.104 156.6ZM147.702 155.735L145.675 151.367L143.579 155.735H147.702Z" fill="#FCFCFC"/>
</svg>
