<svg width="337" height="337" viewBox="0 0 337 337" fill="none" xmlns="http://www.w3.org/2000/svg">
<rect width="337" height="337" fill="#FCFCFC"/>
<path fill-rule="evenodd" clip-rule="evenodd" d="M197.753 63.1302C201.892 64.9806 205.885 67.1885 209.685 69.7394C222.858 78.5817 233.125 91.1494 239.187 105.853C243.314 115.861 245.367 126.553 245.282 137.283L254.783 151.6C255.597 146.679 256.011 141.679 256.011 136.648C256.011 112.449 246.441 89.2406 229.408 72.1292C217.842 60.5103 203.477 52.3486 187.906 48.3062L197.753 63.1302ZM142.212 59.5129L150.213 46.6524C137.575 48.7738 125.469 53.5677 114.721 60.782C99.7838 70.8079 88.1421 85.0581 81.2675 101.731C74.3929 118.403 72.5942 136.749 76.0988 154.448C76.3592 155.763 76.648 157.07 76.9648 158.369L85.4947 145.547C85.1708 142.602 85.0085 139.636 85.0103 136.662C85.0167 126.086 87.0982 115.616 91.1357 105.849C95.1732 96.082 101.087 87.2104 108.54 79.7413C115.962 72.2468 124.79 66.3052 134.512 62.2604C137.035 61.2107 139.605 60.2942 142.212 59.5129ZM165.173 45.4048C166.833 45.405 168.493 45.4506 170.151 45.5414C168.501 45.4506 166.844 45.4048 165.182 45.4048C165.179 45.4048 165.176 45.4048 165.173 45.4048ZM225.613 189.468C226.932 187.944 228.192 186.374 229.39 184.761L237.433 191.941C235.65 194.293 233.757 196.551 231.764 198.709L225.613 189.468ZM207.158 217.562L201.27 208.52C199.492 209.423 197.679 210.261 195.834 211.03C186.111 215.086 175.688 217.176 165.161 217.182C154.633 217.188 144.208 215.109 134.48 211.065C134.257 210.972 134.033 210.877 133.81 210.782H112.232C122.706 218.332 134.708 223.589 147.462 226.137C165.081 229.658 183.344 227.851 199.941 220.945C202.401 219.921 204.809 218.792 207.158 217.562Z" fill="#072139"/>
<path d="M95.9695 187V199.136L63 199.377L128.939 99.6754L194.878 199.136H105.86V187H172.5L128.939 119.565L86.0793 187H95.9695Z" fill="#072139"/>
<path d="M162 50L168.5 40L274 199H260.5L169.5 120.5L221.222 199H208L135.5 90L142 80L238.5 165.5L162 50Z" fill="#072139"/>
<path d="M93.814 287.3H100.128V287.828H94.958V290.611H99.391V291.128H94.958V295H93.814V287.3ZM105.312 295.11C104.036 295.11 103.112 294.828 102.54 294.263C101.975 293.691 101.693 292.87 101.693 291.799V287.3H102.837V292.052C102.837 292.873 103.031 293.5 103.42 293.933C103.808 294.366 104.439 294.582 105.312 294.582C106.17 294.582 106.793 294.369 107.182 293.944C107.578 293.519 107.776 292.888 107.776 292.052V287.3H108.92V291.799C108.92 292.87 108.637 293.691 108.073 294.263C107.508 294.828 106.588 295.11 105.312 295.11ZM117.078 293.383C117.247 293.808 117.401 294.149 117.54 294.406C117.687 294.655 117.83 294.824 117.969 294.912V295H116.77C116.646 294.861 116.528 294.685 116.418 294.472C116.316 294.259 116.202 293.988 116.077 293.658C115.872 293.115 115.663 292.697 115.45 292.404C115.238 292.103 114.977 291.905 114.669 291.81H114.383H112.348V295H111.204V287.3H114.383C115.439 287.3 116.253 287.487 116.825 287.861C117.405 288.228 117.694 288.792 117.694 289.555C117.694 290.692 117.053 291.399 115.769 291.678C116.048 291.817 116.29 292.023 116.495 292.294C116.701 292.558 116.895 292.921 117.078 293.383ZM114.405 291.293C115.843 291.293 116.561 290.714 116.561 289.555C116.561 288.404 115.843 287.828 114.405 287.828H112.348V291.293H114.405ZM119.577 287.3H120.732L125.418 293.273V287.3H126.386V295H125.814L120.545 288.301V295H119.577V287.3ZM129.121 287.3H130.265V295H129.121V287.3ZM135.545 287.828H132.289V287.3H139.934V287.828H136.689V295H135.545V287.828ZM145.124 295.11C143.848 295.11 142.924 294.828 142.352 294.263C141.788 293.691 141.505 292.87 141.505 291.799V287.3H142.649V292.052C142.649 292.873 142.844 293.5 143.232 293.933C143.621 294.366 144.252 294.582 145.124 294.582C145.982 294.582 146.606 294.369 146.994 293.944C147.39 293.519 147.588 292.888 147.588 292.052V287.3H148.732V291.799C148.732 292.87 148.45 293.691 147.885 294.263C147.321 294.828 146.4 295.11 145.124 295.11ZM156.891 293.383C157.06 293.808 157.214 294.149 157.353 294.406C157.5 294.655 157.643 294.824 157.782 294.912V295H156.583C156.458 294.861 156.341 294.685 156.231 294.472C156.128 294.259 156.015 293.988 155.89 293.658C155.685 293.115 155.476 292.697 155.263 292.404C155.05 292.103 154.79 291.905 154.482 291.81H154.196H152.161V295H151.017V287.3H154.196C155.252 287.3 156.066 287.487 156.638 287.861C157.217 288.228 157.507 288.792 157.507 289.555C157.507 290.692 156.865 291.399 155.582 291.678C155.861 291.817 156.103 292.023 156.308 292.294C156.513 292.558 156.708 292.921 156.891 293.383ZM154.218 291.293C155.655 291.293 156.374 290.714 156.374 289.555C156.374 288.404 155.655 287.828 154.218 287.828H152.161V291.293H154.218ZM159.39 287.3H165.913V287.828H160.534V290.611H165.286V291.128H160.534V294.472H165.913V295H159.39V287.3ZM171.731 287.3H172.875V295H171.731V287.3ZM175.614 287.3H176.769L181.455 293.273V287.3H182.423V295H181.851L176.582 288.301V295H175.614V287.3ZM188.289 287.3H191.204C192.26 287.3 193.077 287.494 193.657 287.883C194.236 288.272 194.526 288.866 194.526 289.665C194.526 290.457 194.24 291.047 193.668 291.436C193.096 291.825 192.274 292.019 191.204 292.019H189.433V295H188.289V287.3ZM191.226 291.491C192.663 291.491 193.382 290.882 193.382 289.665C193.382 288.44 192.663 287.828 191.226 287.828H189.433V291.491H191.226ZM200.202 295.11C199.337 295.11 198.593 294.952 197.969 294.637C197.346 294.322 196.869 293.867 196.539 293.273C196.209 292.672 196.044 291.953 196.044 291.117C196.044 290.296 196.209 289.592 196.539 289.005C196.869 288.411 197.346 287.96 197.969 287.652C198.593 287.344 199.337 287.19 200.202 287.19C201.068 287.19 201.808 287.344 202.424 287.652C203.048 287.96 203.524 288.411 203.854 289.005C204.184 289.592 204.349 290.296 204.349 291.117C204.349 291.953 204.184 292.672 203.854 293.273C203.524 293.867 203.048 294.322 202.424 294.637C201.808 294.952 201.068 295.11 200.202 295.11ZM200.202 294.582C201.156 294.582 201.893 294.281 202.413 293.68C202.934 293.079 203.194 292.224 203.194 291.117C203.194 290.032 202.934 289.196 202.413 288.609C201.9 288.015 201.163 287.718 200.202 287.718C199.242 287.718 198.501 288.011 197.98 288.598C197.46 289.185 197.199 290.024 197.199 291.117C197.199 292.224 197.46 293.079 197.98 293.68C198.501 294.281 199.242 294.582 200.202 294.582ZM206.431 287.3H207.575V294.472H212.415V295H206.431V287.3ZM215.411 287.828H212.155V287.3H219.8V287.828H216.555V295H215.411V287.828ZM225.765 292.998H221.332L220.331 295H219.561L223.565 287.19H224.159L227.932 295H226.7L225.765 292.998ZM225.512 292.47L223.62 288.422L221.596 292.47H225.512ZM227.084 287.3H228.349L231.418 293.801L234.718 287.3H235.466L231.495 295.11H230.901L227.084 287.3ZM240.814 292.998H236.381L235.38 295H234.61L238.614 287.19H239.208L242.981 295H241.749L240.814 292.998ZM240.561 292.47L238.669 288.422L236.645 292.47H240.561Z" fill="#072139"/>
<path d="M70.46 264.46H63.34L61.62 268H59.26L66.54 253.8H68.72L75.58 268H72.12L70.46 264.46ZM69.88 263.22L66.96 256.96L63.94 263.22H69.88ZM85.6759 254H89.0159L96.1759 263.46V254H99.3759V268H97.0959L88.8759 257V268H85.6759V254ZM110.678 254H116.678C119.438 254 121.545 254.58 122.998 255.74C124.465 256.887 125.198 258.56 125.198 260.76C125.198 263.12 124.478 264.92 123.038 266.16C121.611 267.387 119.531 268 116.798 268H110.678V254ZM117.078 266.76C118.625 266.76 119.791 266.26 120.578 265.26C121.365 264.247 121.758 262.747 121.758 260.76C121.758 258.96 121.358 257.593 120.558 256.66C119.771 255.713 118.611 255.24 117.078 255.24H114.078V266.76H117.078ZM147.869 264.9C148.242 265.807 148.549 266.507 148.789 267C149.042 267.493 149.275 267.733 149.489 267.72V268H146.169C145.915 267.733 145.682 267.393 145.469 266.98C145.269 266.567 145.055 266.047 144.829 265.42C144.495 264.54 144.182 263.853 143.889 263.36C143.595 262.867 143.215 262.527 142.749 262.34H142.449H139.489V268H136.109V254H142.449C144.542 254 146.155 254.313 147.289 254.94C148.435 255.567 149.009 256.633 149.009 258.14C149.009 260.18 147.909 261.467 145.709 262C146.162 262.28 146.555 262.653 146.889 263.12C147.235 263.573 147.562 264.167 147.869 264.9ZM139.489 261.1H142.469C143.482 261.1 144.262 260.893 144.809 260.48C145.369 260.067 145.649 259.287 145.649 258.14C145.649 257.02 145.369 256.26 144.809 255.86C144.262 255.447 143.482 255.24 142.469 255.24H139.489V261.1ZM167.248 268.2C165.582 268.2 164.142 267.913 162.928 267.34C161.715 266.767 160.782 265.94 160.128 264.86C159.488 263.767 159.168 262.46 159.168 260.94C159.168 259.447 159.488 258.167 160.128 257.1C160.782 256.033 161.715 255.22 162.928 254.66C164.142 254.087 165.582 253.8 167.248 253.8C168.902 253.8 170.335 254.087 171.548 254.66C172.762 255.22 173.688 256.033 174.328 257.1C174.982 258.167 175.308 259.447 175.308 260.94C175.308 262.46 174.982 263.767 174.328 264.86C173.688 265.94 172.762 266.767 171.548 267.34C170.348 267.913 168.915 268.2 167.248 268.2ZM167.248 266.96C168.755 266.96 169.902 266.447 170.688 265.42C171.475 264.393 171.868 262.9 171.868 260.94C171.868 259.02 171.475 257.56 170.688 256.56C169.902 255.547 168.755 255.04 167.248 255.04C165.742 255.04 164.588 255.547 163.788 256.56C163.002 257.56 162.608 259.02 162.608 260.94C162.608 262.9 163.002 264.393 163.788 265.42C164.575 266.447 165.728 266.96 167.248 266.96ZM203.129 254V268H199.709V258.14L195.489 268H193.389L188.109 257.82V268H186.229V254H189.689L195.109 264.52L199.649 254H203.129ZM214.414 254H227.354V255.24H217.814V259.88H226.254V261.12H217.814V266.76H227.354V268H214.414V254ZM237.737 254H243.737C246.497 254 248.603 254.58 250.057 255.74C251.523 256.887 252.257 258.56 252.257 260.76C252.257 263.12 251.537 264.92 250.097 266.16C248.67 267.387 246.59 268 243.857 268H237.737V254ZM244.137 266.76C245.683 266.76 246.85 266.26 247.637 265.26C248.423 264.247 248.817 262.747 248.817 260.76C248.817 258.96 248.417 257.593 247.617 256.66C246.83 255.713 245.67 255.24 244.137 255.24H241.137V266.76H244.137ZM272.387 264.46H265.267L263.547 268H261.187L268.467 253.8H270.647L277.507 268H274.047L272.387 264.46ZM271.807 263.22L268.887 256.96L265.867 263.22H271.807Z" fill="#072139"/>
</svg>
